<svg version="1.1" id="Layer_1" xmlns="http://www.w3.org/2000/svg" xmlns:xlink="http://www.w3.org/1999/xlink" x="0px" y="0px" width="100%" viewBox="0 0 297 297" enable-background="new 0 0 297 297" xml:space="preserve">

<path fill="#000000" opacity="1.000000" stroke="none" d="
M124.531342,0.999999 
	C124.027725,1.666039 123.133545,2.732743 122.071785,2.939721 
	C92.955139,8.615673 67.652054,21.432568 46.232262,42.161560 
	C23.017601,64.627541 8.470154,91.525528 2.846947,123.305054 
	C2.749017,123.858498 2.120745,124.318100 1.369971,124.910751 
	C1.000000,83.739700 1.000000,42.479401 1.000000,1.000000 
	C42.020634,1.000000 83.041656,1.000000 124.531342,0.999999 
z" data-index="1" style="opacity: 1; visibility: hidden; fill: rgb(121, 40, 202);"></path>

<path fill="#000000" opacity="1.000000" stroke="none" d="
M298.000000,124.531342 
	C297.334198,124.027222 296.266174,123.132072 296.061279,122.070343 
	C290.605621,93.803856 278.271484,69.113251 258.573242,47.991627 
	C237.033707,24.895658 210.837494,10.284549 180.115692,3.505178 
	C178.104782,3.061430 176.156250,2.335079 174.089355,1.370090 
	C215.260300,1.000000 256.520599,1.000000 298.000000,1.000000 
	C298.000000,42.020634 298.000000,83.041656 298.000000,124.531342 
z" data-index="3" style="opacity: 1; visibility: hidden; fill: rgb(121, 40, 202);"></path>

<path fill="#FA32E5" opacity="1.000000" stroke="none" d="
M125.988998,217.772720 
	C114.128098,221.908493 102.054886,222.758163 89.383255,219.565994 
	C89.712059,214.134354 90.413536,209.250427 91.504852,204.484497 
	C94.262810,205.071426 96.630905,205.540375 99.352020,206.207092 
	C102.472420,206.629974 105.239799,206.855103 108.443512,207.137939 
	C111.939575,206.879303 114.999329,206.562958 118.453293,206.237976 
	C121.555305,205.408493 124.263100,204.587646 126.979385,204.222473 
	C126.654922,209.043030 126.321960,213.407867 125.988998,217.772720 
z" data-index="5" style="opacity: 1;"></path>
<path fill="#FC32E6" opacity="1.000000" stroke="none" d="
M170.290161,112.299057 
	C170.677597,112.560020 171.065033,112.820984 171.776505,113.517990 
	C173.692368,115.275368 175.284195,116.596703 177.032349,118.201401 
	C178.640945,120.014488 180.093231,121.544212 181.651688,123.411461 
	C183.562592,125.795532 185.367325,127.842079 187.286652,130.166351 
	C188.196854,131.014908 188.992447,131.585739 189.955841,132.449341 
	C193.776199,135.439499 197.428741,138.136871 201.282166,141.083450 
	C202.092346,141.478271 202.701630,141.623901 203.212036,141.794769 
	C203.113174,141.820023 203.094788,141.616776 203.258118,141.943573 
	C208.137955,145.637939 213.090576,148.115341 219.189713,147.071503 
	C222.403854,146.521423 225.668716,146.267746 228.796875,146.209320 
	C227.422119,147.552673 226.223495,148.658630 224.889557,149.565521 
	C218.682877,153.785202 211.874252,153.326706 204.987396,152.005219 
	C205.002426,151.995926 204.999817,152.031158 204.811462,151.782623 
	C204.031799,151.364868 203.440460,151.195648 202.525024,150.946838 
	C200.119522,149.600464 198.038132,148.333679 195.693207,146.863220 
	C192.288132,144.102371 189.146576,141.545212 185.841873,138.697235 
	C181.785568,134.937759 177.892410,131.469116 173.803253,127.728020 
	C171.574310,125.362312 169.541367,123.269035 167.841156,120.916855 
	C168.879303,117.871658 169.584732,115.085358 170.290161,112.299057 
z" data-index="6" style="opacity: 1;"></path>
<path fill="#F901DE" opacity="1.000000" stroke="none" d="
M252.185852,142.806885 
	C252.014587,149.597366 248.199341,154.538147 243.402527,159.018768 
	C241.313461,153.984055 239.808411,149.093552 237.977661,144.328156 
	C237.339294,142.666489 235.896896,141.313705 234.912109,139.453064 
	C237.418854,133.498810 238.473984,127.996048 233.995529,122.646263 
	C233.999847,122.454544 234.004974,122.070122 234.389603,121.987404 
	C242.015213,122.503014 245.930725,127.809044 250.399323,133.010498 
	C251.186462,136.456924 251.686157,139.631912 252.185852,142.806885 
z" data-index="7" style="opacity: 1;"></path>
<path fill="#DA33E7" opacity="1.000000" stroke="none" d="
M146.035629,207.102249 
	C141.937683,209.740845 137.839752,212.379425 133.376434,214.560730 
	C132.992905,209.645584 132.974716,205.187744 133.141876,200.477264 
	C135.232010,198.512604 137.136795,196.800552 139.326202,194.930954 
	C140.390976,193.869766 141.171082,192.966110 141.951202,192.062454 
	C141.792114,191.818481 141.633026,191.574509 141.473938,191.330536 
	C140.629257,191.610031 139.784576,191.889542 138.957596,192.096161 
	C138.975296,192.023300 139.032242,191.884537 139.022751,191.485931 
	C138.640732,189.360031 138.268204,187.632721 138.074509,185.623749 
	C140.166580,183.558014 142.079834,181.773956 144.247620,179.883484 
	C144.983475,179.510132 145.464767,179.243225 146.213730,179.268677 
	C146.685211,181.437332 146.889023,183.313629 147.070770,185.397736 
	C147.048737,185.605545 146.985657,186.018723 146.995712,186.011322 
	C147.005768,186.003937 147.012405,185.979889 146.787018,186.176819 
	C146.365463,186.926575 146.169281,187.479416 145.991608,188.019867 
	C146.010132,188.007477 146.027359,187.966354 145.790680,188.074112 
	C145.360229,188.461517 145.166443,188.741150 144.989349,189.014816 
	C145.006027,189.008835 145.011292,188.973785 144.766846,188.977173 
	C144.266937,189.144150 144.011490,189.307755 143.756042,189.471359 
	C144.156555,189.639862 144.557083,189.808365 145.323105,190.082977 
	C146.084793,191.316574 146.844696,192.454269 146.813354,193.569748 
	C146.686523,198.084305 146.316132,202.592010 146.035629,207.102249 
z" data-index="8" style="opacity: 1;"></path>
<path fill="#120FE5" opacity="1.000000" stroke="none" d="
M176.876022,117.918037 
	C175.284195,116.596703 173.692368,115.275368 172.106522,113.636322 
	C180.253006,103.066902 190.340622,95.465591 202.776077,91.229683 
	C214.736084,87.155731 226.268738,87.860970 237.156204,95.344223 
	C237.258377,95.715828 236.997025,96.005081 236.740082,96.040329 
	C236.311844,96.099335 236.140564,96.123093 235.622086,96.043335 
	C233.891571,95.563042 232.508270,95.186256 230.858459,94.595673 
	C229.047592,94.033813 227.503220,93.685753 225.551361,93.241058 
	C223.754944,93.144432 222.366013,93.144432 220.527252,93.109108 
	C217.075684,93.114433 214.073944,93.155090 210.638885,93.126511 
	C201.418762,93.390732 194.207184,96.779999 188.990326,104.006058 
	C189.008804,104.009132 189.005814,103.971786 188.707123,103.977402 
	C188.260269,104.322296 188.112106,104.661568 187.986084,105.004700 
	C188.008255,105.008553 188.001663,104.964035 187.705566,104.973724 
	C187.259796,105.321678 187.110107,105.659958 186.983719,106.002838 
	C187.007004,106.007439 186.999039,105.960625 186.709854,105.982048 
	C186.266190,106.336403 186.111694,106.669342 185.983124,107.005814 
	C186.009048,107.009361 186.002548,106.957451 185.721863,106.997208 
	C185.279099,107.362587 185.117050,107.688202 184.986206,108.016029 
	C185.017410,108.018242 185.020309,107.955719 184.717239,108.047699 
	C184.138870,108.460426 183.863556,108.781158 183.441376,109.375343 
	C181.154999,112.405212 179.015518,115.161621 176.876022,117.918037 
z" data-index="9" style="opacity: 1;"></path>
<path fill="#383AE9" opacity="1.000000" stroke="none" d="
M39.881485,171.060760 
	C34.807823,153.074249 37.181656,135.880981 45.692268,119.574188 
	C46.340195,124.264946 46.689434,128.691040 47.040138,133.539307 
	C46.686077,137.973938 46.330559,141.986359 45.604900,146.113129 
	C44.488510,150.013092 43.798588,153.810913 42.981457,157.581161 
	C42.004967,162.086685 40.919655,166.568619 39.881485,171.060760 
z" data-index="10" style="opacity: 1;"></path>
<path fill="#3A0BE4" opacity="1.000000" stroke="none" d="
M252.534424,142.752472 
	C251.686157,139.631912 251.186462,136.456924 250.394714,132.637665 
	C250.049393,130.993484 249.996124,129.993561 249.996994,128.651764 
	C249.700684,127.529526 249.350250,126.749153 248.993332,125.988571 
	C248.986862,126.008354 249.028229,126.013054 249.083771,125.637909 
	C248.224075,123.140366 247.308838,121.017982 246.268097,118.571198 
	C245.310410,116.850929 244.478210,115.455070 243.939148,113.854866 
	C244.080322,112.275940 244.074631,110.865501 243.748062,109.533737 
	C242.886169,106.018921 241.885086,102.538231 241.037048,98.952209 
	C241.134689,98.860451 241.327866,98.674736 241.327866,98.674736 
	C252.898422,108.409157 258.443237,126.986763 253.982834,141.199402 
	C253.807251,141.758896 253.258102,142.201157 252.534424,142.752472 
z" data-index="11" style="opacity: 1;"></path>
<path fill="#B036E8" opacity="1.000000" stroke="none" d="
M166.105377,179.031433 
	C163.972504,182.923111 161.839630,186.814789 159.110489,190.709427 
	C158.256546,189.555481 157.702820,188.376160 157.788437,187.245239 
	C158.429153,178.781616 159.196167,170.327545 159.931061,161.492401 
	C161.676804,157.054489 163.415161,152.994659 165.453018,149.082886 
	C166.850510,151.149567 167.948517,153.068161 168.682663,155.080139 
	C167.778702,155.957367 166.871155,156.691254 166.756668,157.532990 
	C165.847321,164.218567 165.054794,170.921143 164.367844,177.632980 
	C164.326630,178.035645 165.498154,178.562424 166.105377,179.031433 
z" data-index="12" style="opacity: 1;"></path>
<path fill="#BD36E9" opacity="1.000000" stroke="none" d="
M159.923645,161.870483 
	C159.196167,170.327545 158.429153,178.781616 157.788437,187.245239 
	C157.702820,188.376160 158.256546,189.555481 158.829010,190.889618 
	C157.115417,193.990738 155.087021,196.914627 152.465347,199.780762 
	C151.587540,198.460358 150.968735,197.167557 151.079498,195.940613 
	C151.451294,191.822754 152.249146,187.741287 152.569595,183.621445 
	C152.897507,179.405548 152.855164,175.160843 152.986786,170.620667 
	C153.021759,169.900436 153.044830,169.488297 153.351349,168.894318 
	C155.731079,166.431808 157.827377,164.151154 159.923645,161.870483 
z" data-index="13" style="opacity: 1;"></path>
<path fill="#B504D2" opacity="1.000000" stroke="none" d="
M195.956726,147.066895 
	C198.038132,148.333679 200.119522,149.600464 202.732849,151.178238 
	C203.843124,151.669876 204.421463,151.850525 204.999817,152.031158 
	C204.999817,152.031158 205.002426,151.995926 205.216125,152.282623 
	C208.273193,153.423782 211.116562,154.278244 213.982727,155.509186 
	C214.145538,160.923248 217.823639,162.868317 222.135254,163.896347 
	C220.380417,165.998901 219.196060,167.417953 218.011719,168.836990 
	C214.951675,168.558914 211.891632,168.280853 208.542572,167.552277 
	C208.612335,166.784988 208.947159,166.434677 209.334412,166.157684 
	C210.497116,165.326050 211.680252,164.523026 212.855423,163.708832 
	C211.718033,162.706100 210.737167,161.343857 209.414032,160.767715 
	C205.365829,159.005020 201.186111,157.544449 197.040314,155.558716 
	C196.667633,152.456345 196.312180,149.761612 195.956726,147.066895 
z" data-index="14" style="opacity: 1;"></path>
<path fill="#9805C4" opacity="1.000000" stroke="none" d="
M197.057541,155.966354 
	C201.186111,157.544449 205.365829,159.005020 209.414032,160.767715 
	C210.737167,161.343857 211.718033,162.706100 212.855423,163.708832 
	C211.680252,164.523026 210.497116,165.326050 209.334412,166.157684 
	C208.947159,166.434677 208.612335,166.784988 208.148193,167.439697 
	C202.233200,165.598358 196.423569,163.419067 190.317337,160.628113 
	C189.684265,157.011826 189.347794,154.007217 189.307343,151.160736 
	C192.088089,152.868027 194.572815,154.417191 197.057541,155.966354 
z" data-index="15" style="opacity: 1;"></path>
<path fill="#C935E9" opacity="1.000000" stroke="none" d="
M152.974899,170.928757 
	C152.855164,175.160843 152.897507,179.405548 152.569595,183.621445 
	C152.249146,187.741287 151.451294,191.822754 151.079498,195.940613 
	C150.968735,197.167557 151.587540,198.460358 152.216248,199.985596 
	C150.596512,202.453262 148.632599,204.658325 146.352173,206.982819 
	C146.316132,202.592010 146.686523,198.084305 146.813354,193.569748 
	C146.844696,192.454269 146.084793,191.316574 145.341003,189.832550 
	C144.999374,189.308609 145.005341,189.141190 145.011292,188.973785 
	C145.011292,188.973785 145.006027,189.008835 145.211426,188.890167 
	C145.620331,188.503128 145.823853,188.234741 146.027359,187.966354 
	C146.027359,187.966354 146.010132,188.007477 146.221710,187.828369 
	C146.626343,187.092804 146.819366,186.536346 147.012390,185.979889 
	C147.012405,185.979889 147.005768,186.003937 147.120972,185.928909 
	C147.236160,185.853882 147.371643,185.489243 147.371643,185.489243 
	C147.371643,185.489243 147.092819,185.189926 147.092819,185.189926 
	C146.889023,183.313629 146.685211,181.437332 146.378510,178.978088 
	C148.508713,175.906342 150.741806,173.417542 152.974899,170.928757 
z" data-index="16" style="opacity: 1;"></path>
<path fill="#473BED" opacity="1.000000" stroke="none" d="
M39.887333,171.448120 
	C40.919655,166.568619 42.004967,162.086685 42.981457,157.581161 
	C43.798588,153.810913 44.488510,150.013092 45.688446,146.503601 
	C47.113655,151.160873 48.085175,155.542038 49.024723,160.197815 
	C48.970348,160.655334 48.947945,160.838272 48.570023,161.116638 
	C47.476101,164.277359 46.830692,167.368912 45.973969,170.400772 
	C45.057781,173.643082 43.942356,176.829056 42.913902,180.039627 
	C41.906998,177.304916 40.900089,174.570206 39.887333,171.448120 
z" data-index="17" style="opacity: 1;"></path>
<path fill="#0A0FE8" opacity="1.000000" stroke="none" d="
M56.266666,104.329582 
	C63.440876,95.535973 72.619843,89.675186 83.610748,86.316505 
	C84.011490,88.523300 84.027039,90.315254 83.752090,92.276817 
	C81.826752,93.202538 80.191902,93.958649 78.204735,94.757172 
	C75.255600,95.868477 72.658791,96.937363 69.820770,98.048019 
	C69.243858,98.193611 69.013847,98.409798 68.835823,98.728821 
	C68.782135,98.719299 68.707382,98.798706 68.492218,98.834976 
	C68.277046,98.871254 67.904427,99.098450 67.648804,99.159256 
	C66.966820,99.504845 66.540466,99.789619 65.753036,100.083885 
	C62.350193,101.505447 59.308430,102.917519 56.266666,104.329582 
z" data-index="18" style="opacity: 1;"></path>
<path fill="#4D1B78" opacity="1.000000" stroke="none" d="
M169.046524,154.986755 
	C167.948517,153.068161 166.850510,151.149567 165.309387,148.802414 
	C164.213272,147.581558 163.560287,146.789230 162.914001,145.586304 
	C163.031723,144.081589 163.142715,142.987503 163.524979,142.069870 
	C165.865326,143.820129 167.934387,145.393951 170.286591,147.147003 
	C173.348053,149.281570 176.126389,151.236862 178.925308,153.391785 
	C178.945892,153.591431 178.990860,153.990311 178.990860,153.990311 
	C176.969666,157.649673 174.948486,161.309036 172.385193,164.695251 
	C170.910889,161.276978 169.978699,158.131866 169.046524,154.986755 
z" data-index="19"></path>
<path fill="#4A0AA7" opacity="1.000000" stroke="none" d="
M232.968658,173.114258 
	C229.469986,178.279068 223.599014,177.467148 218.973587,177.258194 
	C212.785980,176.978699 206.699829,174.453186 200.570114,172.892151 
	C200.733276,172.194519 200.896423,171.496887 201.059570,170.799255 
	C206.249893,171.748337 211.422470,173.310547 216.635880,173.461365 
	C221.181686,173.592880 225.773529,172.132843 230.742889,171.586105 
	C231.750061,172.235550 232.359360,172.674896 232.968658,173.114258 
z" data-index="20" style="opacity: 1;"></path>
<path fill="#EC01DC" opacity="1.000000" stroke="none" d="
M234.821686,139.819855 
	C235.896896,141.313705 237.339294,142.666489 237.977661,144.328156 
	C239.808411,149.093552 241.313461,153.984055 243.106537,159.199631 
	C241.845352,160.737732 240.424179,161.901611 238.391312,162.899765 
	C236.694977,159.846481 235.801208,156.865509 234.451355,154.107773 
	C233.688354,152.548965 232.175644,151.357132 231.165115,149.695312 
	C232.522552,146.229782 233.715500,143.068939 234.878723,139.893936 
	C234.848999,139.879776 234.821686,139.819855 234.821686,139.819855 
z" data-index="21" style="opacity: 1;"></path>
<path fill="#A636E9" opacity="1.000000" stroke="none" d="
M168.682663,155.080139 
	C169.978699,158.131866 170.910889,161.276978 172.051117,164.767517 
	C170.391006,169.615356 168.522842,174.117767 166.380035,178.825806 
	C165.498154,178.562424 164.326630,178.035645 164.367844,177.632980 
	C165.054794,170.921143 165.847321,164.218567 166.756668,157.532990 
	C166.871155,156.691254 167.778702,155.957367 168.682663,155.080139 
z" data-index="22" style="opacity: 1;"></path>
<path fill="#563BED" opacity="1.000000" stroke="none" d="
M42.946781,180.394257 
	C43.942356,176.829056 45.057781,173.643082 45.973969,170.400772 
	C46.830692,167.368912 47.476101,164.277359 48.610054,161.490814 
	C50.020622,164.840271 51.035645,167.910980 51.680531,171.087784 
	C50.864754,172.332077 50.286774,173.437653 49.996971,174.614212 
	C48.894291,179.090988 47.884663,183.590683 46.840260,188.081802 
	C45.553394,185.637497 44.266529,183.193176 42.946781,180.394257 
z" data-index="23" style="opacity: 1;"></path>
<path fill="#7C07B9" opacity="1.000000" stroke="none" d="
M179.300369,154.129532 
	C178.990860,153.990311 178.945892,153.591431 178.954926,152.949890 
	C178.646393,149.200089 178.328812,146.091827 178.306335,143.143463 
	C181.394928,145.210922 184.188400,147.118454 187.119354,149.281189 
	C187.841644,150.025131 188.426483,150.513870 189.011322,151.002609 
	C189.347794,154.007217 189.684265,157.011826 190.029755,160.420792 
	C186.562469,158.639679 183.086166,156.454208 179.300369,154.129532 
z" data-index="24" style="opacity: 1;"></path>
<path fill="#310CE8" opacity="1.000000" stroke="none" d="
M84.042587,92.107201 
	C84.027039,90.315254 84.011490,88.523300 83.987541,86.281189 
	C90.366364,84.575630 96.753593,83.320244 103.460327,82.470642 
	C100.850067,83.612381 97.920311,84.348351 94.662491,85.106735 
	C93.286156,85.557129 92.237869,85.985123 91.189583,86.413109 
	C91.300423,86.685036 91.411263,86.956955 91.522110,87.228874 
	C92.675087,86.822617 93.828064,86.416359 95.380066,86.020157 
	C96.842865,86.060989 97.906647,86.091766 98.980362,86.467896 
	C98.982712,87.741119 98.975136,88.668999 98.603973,89.682266 
	C97.502159,89.879150 96.763931,89.990646 95.615555,90.084045 
	C91.484474,90.746368 87.763527,91.426781 84.042587,92.107201 
z" data-index="25" style="opacity: 1;"></path>
<path fill="#473BED" opacity="1.000000" stroke="none" d="
M47.038673,133.117126 
	C46.689434,128.691040 46.340195,124.264946 45.979584,119.369720 
	C47.720448,116.015060 49.472683,113.129547 51.803162,110.097260 
	C52.583359,109.958023 52.785316,109.965561 52.993729,110.374283 
	C53.721264,112.210884 54.442345,113.646301 55.082710,115.430527 
	C52.347549,121.558601 49.693111,127.337860 47.038673,133.117126 
z" data-index="26" style="opacity: 1;"></path>
<path fill="#EA32E6" opacity="1.000000" stroke="none" d="
M170.114349,112.021011 
	C169.584732,115.085358 168.879303,117.871658 167.566284,120.815895 
	C165.631729,120.005844 164.304749,119.037842 162.796722,117.815392 
	C161.744736,116.684845 160.873825,115.808746 160.066116,114.549110 
	C160.747833,111.132401 161.366333,108.099243 161.984833,105.066078 
	C163.660034,106.256538 165.335236,107.446999 167.282089,108.342545 
	C167.553726,108.047646 167.527420,108.133713 167.527420,108.133713 
	C168.331131,109.336792 169.134842,110.539871 170.114349,112.021011 
z" data-index="27" style="opacity: 1;"></path>
<path fill="#DA33E7" opacity="1.000000" stroke="none" d="
M161.816360,104.774124 
	C161.366333,108.099243 160.747833,111.132401 159.767075,114.425735 
	C157.590546,113.160576 155.776260,111.635254 153.864990,109.877106 
	C153.518738,109.423851 153.269470,109.203430 152.845337,108.761711 
	C152.168686,108.298622 151.666885,108.056839 151.118347,107.518364 
	C151.011230,106.826042 150.950867,106.430420 151.153229,105.804291 
	C152.313492,103.698456 153.211014,101.823120 154.108521,99.947784 
	C156.621643,101.459244 159.134766,102.970711 161.816360,104.774124 
z" data-index="28" style="opacity: 1;"></path>
<path fill="#DF02DA" opacity="1.000000" stroke="none" d="
M231.000610,150.000000 
	C232.175644,151.357132 233.688354,152.548965 234.451355,154.107773 
	C235.801208,156.865509 236.694977,159.846481 238.081970,162.970123 
	C236.158798,164.412476 233.933258,165.618729 231.368408,166.479889 
	C230.740723,164.355026 230.580414,162.542282 230.132416,160.803650 
	C229.534103,158.481567 228.712479,156.216995 228.029526,153.609650 
	C229.048386,152.194382 230.024506,151.097198 231.000610,150.000000 
z" data-index="29" style="opacity: 1;"></path>
<path fill="#D102D7" opacity="1.000000" stroke="none" d="
M227.986771,153.927734 
	C228.712479,156.216995 229.534103,158.481567 230.132416,160.803650 
	C230.580414,162.542282 230.740723,164.355026 231.018738,166.485550 
	C228.915573,167.354172 226.822769,167.872025 224.399078,168.128204 
	C224.668854,166.590408 225.269501,165.314285 225.870132,164.038177 
	C225.389023,164.132248 224.907913,164.226303 224.426788,164.320374 
	C223.277313,161.241501 222.127823,158.162613 221.364746,155.002045 
	C223.829681,154.589493 225.908234,154.258606 227.986771,153.927734 
z" data-index="30" style="opacity: 1;"></path>
<path fill="#EA32E6" opacity="1.000000" stroke="none" d="
M132.956543,200.729889 
	C132.974716,205.187744 132.992905,209.645584 133.013794,214.572983 
	C130.908157,215.946487 128.799820,216.850449 126.340225,217.763565 
	C126.321960,213.407867 126.654922,209.043030 127.201241,204.031677 
	C128.267944,202.882889 129.121277,202.380615 130.284988,201.802505 
	C131.382416,201.394409 132.169479,201.062149 132.956543,200.729889 
z" data-index="31" style="opacity: 1;"></path>
<path fill="#BD36E9" opacity="1.000000" stroke="none" d="
M74.974594,215.014038 
	C73.417549,214.236450 71.860497,213.458847 70.284866,212.034912 
	C71.191147,206.173096 72.116020,200.957611 73.362656,195.864899 
	C75.086227,196.684631 76.488037,197.381592 77.935463,198.302032 
	C77.981079,198.525497 78.091309,198.968155 77.817810,199.254578 
	C76.687744,204.698685 75.831169,209.856354 74.974594,215.014038 
z" data-index="32"></path>
<path fill="#C935E9" opacity="1.000000" stroke="none" d="
M75.188881,215.272766 
	C75.831169,209.856354 76.687744,204.698685 78.109207,199.390213 
	C79.784897,199.810623 80.895691,200.381805 82.003937,201.399658 
	C81.668129,207.163559 81.334869,212.480804 81.001610,217.798065 
	C79.135460,217.042526 77.269318,216.287003 75.188881,215.272766 
z" data-index="33"></path>
<path fill="#7039EA" opacity="1.000000" stroke="none" d="
M54.908016,199.246368 
	C53.631443,197.796249 52.354870,196.346146 51.062946,194.171539 
	C51.370953,191.840149 51.699886,190.234344 52.016544,188.626129 
	C52.794132,184.676926 53.566067,180.726624 54.633034,176.886520 
	C55.966042,178.278824 57.006290,179.561386 57.886749,181.223984 
	C56.787304,187.484818 55.847660,193.365585 54.908016,199.246368 
z" data-index="34" style="opacity: 1;"></path>
<path fill="#633AEC" opacity="1.000000" stroke="none" d="
M54.340271,176.776764 
	C53.566067,180.726624 52.794132,184.676926 52.016544,188.626129 
	C51.699886,190.234344 51.370953,191.840149 50.968914,193.864868 
	C49.568703,192.444962 48.247177,190.607239 46.882957,188.425659 
	C47.884663,183.590683 48.894291,179.090988 49.996971,174.614212 
	C50.286774,173.437653 50.864754,172.332077 51.948486,171.316284 
	C53.171139,173.218033 53.755703,174.997391 54.340271,176.776764 
z" data-index="35" style="opacity: 1;"></path>
<path fill="#C935E9" opacity="1.000000" stroke="none" d="
M154.024109,99.616211 
	C153.211014,101.823120 152.313492,103.698456 150.847351,105.794861 
	C149.868240,105.991348 149.457764,105.966751 148.874908,105.658173 
	C146.466858,103.589470 144.231186,101.804741 142.146820,99.675781 
	C142.942978,96.770050 143.725296,94.359123 147.179535,94.874588 
	C149.432922,96.344604 151.686295,97.814621 154.024109,99.616211 
z" data-index="36" style="opacity: 1;"></path>
<path fill="#C503D7" opacity="1.000000" stroke="none" d="
M220.978348,155.083710 
	C222.127823,158.162613 223.277313,161.241501 224.426788,164.320374 
	C224.907913,164.226303 225.389023,164.132248 225.870132,164.038177 
	C225.269501,165.314285 224.668854,166.590408 224.045654,168.200409 
	C222.306946,168.677704 220.590790,168.821136 218.443176,168.900772 
	C219.196060,167.417953 220.380417,165.998901 222.135254,163.896347 
	C217.823639,162.868317 214.145538,160.923248 214.422638,155.475403 
	C216.885956,155.071350 218.932159,155.077530 220.978348,155.083710 
z" data-index="37" style="opacity: 1;"></path>
<path fill="#A636E9" opacity="1.000000" stroke="none" d="
M73.040901,195.742142 
	C72.116020,200.957611 71.191147,206.173096 70.099258,211.765854 
	C68.694160,211.389603 67.456070,210.636063 66.121384,209.197296 
	C67.080940,203.305679 68.137093,198.099274 69.487801,192.972443 
	C70.868538,193.948715 71.954720,194.845428 73.040901,195.742142 
z" data-index="38"></path>
<path fill="#8F26E6" opacity="1.000000" stroke="none" d="
M124.048210,84.926346 
	C128.550659,86.438133 133.053101,87.949921 137.522034,89.868782 
	C136.991333,90.509651 136.494156,90.743439 135.765472,90.710632 
	C127.950066,86.704239 126.544136,87.216316 125.685776,93.957840 
	C124.908401,93.990189 124.462517,93.974953 123.852959,93.726044 
	C123.143272,93.360817 122.597260,93.229279 121.873985,92.817780 
	C120.450844,91.704300 119.204979,90.870773 117.973587,89.621841 
	C117.978134,87.829575 117.968208,86.452713 118.329025,85.067963 
	C120.482590,85.015503 122.265404,84.970924 124.048210,84.926346 
z" data-index="39" style="opacity: 1;"></path>
<path fill="#9837EA" opacity="1.000000" stroke="none" d="
M69.193237,192.892868 
	C68.137093,198.099274 67.080940,203.305679 65.941353,208.941101 
	C64.641235,208.500732 63.424557,207.631363 62.141930,206.057953 
	C62.387905,203.263214 62.500443,201.117523 63.058163,199.094604 
	C63.909668,196.006073 65.068764,193.002365 66.368088,190.103577 
	C67.490349,191.127304 68.341789,192.010086 69.193237,192.892868 
z" data-index="40"></path>
<path fill="#7E39EC" opacity="1.000000" stroke="none" d="
M55.006493,199.523468 
	C55.847660,193.365585 56.787304,187.484818 58.161438,181.411255 
	C59.788742,182.785004 60.981560,184.351547 61.868942,186.165558 
	C61.042271,188.578491 60.531761,190.746582 59.997231,192.908737 
	C59.234612,195.993591 58.454376,199.074081 57.681667,202.156433 
	C56.822765,201.371140 55.963867,200.585846 55.006493,199.523468 
z" data-index="41" style="opacity: 1;"></path>
<path fill="#4A0AA7" opacity="1.000000" stroke="none" d="
M167.508789,108.050064 
	C172.526566,103.918243 177.449615,99.593811 182.710785,95.729813 
	C185.348724,93.792404 188.602600,92.693642 191.725632,91.832474 
	C185.286270,97.069893 178.903595,102.380508 172.342834,107.461174 
	C171.421021,108.175041 169.627579,107.763382 167.882507,108.003212 
	C167.527420,108.133713 167.553726,108.047646 167.508789,108.050064 
z" data-index="42" style="opacity: 1;"></path>
<path fill="#EA32E6" opacity="1.000000" stroke="none" d="
M91.115005,204.366516 
	C90.413536,209.250427 89.712059,214.134354 89.008827,219.434662 
	C87.107803,219.438675 85.208527,219.026291 83.385590,218.169952 
	C84.337349,212.730850 85.212776,207.735687 86.421234,202.801208 
	C88.207840,203.363434 89.661423,203.864975 91.115005,204.366516 
z" data-index="43"></path>
<path fill="#8B38EB" opacity="1.000000" stroke="none" d="
M57.834152,202.448532 
	C58.454376,199.074081 59.234612,195.993591 59.997231,192.908737 
	C60.531761,190.746582 61.042271,188.578491 62.126656,186.326263 
	C63.779522,187.166046 64.869247,188.092606 65.990211,189.255493 
	C66.021454,189.491791 66.097267,189.962646 66.097267,189.962646 
	C65.068764,193.002365 63.909668,196.006073 63.058163,199.094604 
	C62.500443,201.117523 62.387905,203.263214 62.000217,205.770050 
	C60.611847,205.037659 59.299240,203.889145 57.834152,202.448532 
z" data-index="44"></path>
<path fill="#633AEC" opacity="1.000000" stroke="none" d="
M55.163425,115.081718 
	C54.442345,113.646301 53.721264,112.210884 52.997784,110.107254 
	C52.971256,109.262413 52.947132,109.085777 52.923004,108.909134 
	C52.923004,108.909134 52.979729,108.955559 53.229519,108.828186 
	C53.660011,108.129379 53.840717,107.557945 54.021420,106.986511 
	C54.021420,106.986511 54.018330,107.015633 54.315502,106.906036 
	C54.769646,106.398521 54.926620,106.000595 55.083591,105.602669 
	C55.396416,105.240295 55.709236,104.877914 56.144363,104.422562 
	C59.308430,102.917519 62.350193,101.505447 65.687187,100.419434 
	C64.581673,102.350273 63.086765,103.883926 61.805943,105.579308 
	C60.453747,107.369171 59.305679,109.313240 57.915276,111.457581 
	C56.895889,112.844048 56.029655,113.962883 55.163425,115.081718 
z" data-index="45" style="opacity: 1;"></path>
<path fill="#DA33E7" opacity="1.000000" stroke="none" d="
M86.088211,202.740524 
	C85.212776,207.735687 84.337349,212.730850 83.114838,217.925629 
	C82.366112,218.095612 81.964478,218.065979 81.282227,217.917206 
	C81.334869,212.480804 81.668129,207.163559 82.344925,201.452026 
	C83.782791,201.375977 84.877129,201.694214 86.009079,202.193115 
	C86.046692,202.373795 86.088211,202.740524 86.088211,202.740524 
z" data-index="46"></path>
<path fill="#6119E2" opacity="1.000000" stroke="none" d="
M123.772339,84.661026 
	C122.265404,84.970924 120.482590,85.015503 117.870758,85.044640 
	C112.663338,85.359406 108.284935,85.689621 103.495560,86.023773 
	C101.713196,86.059319 100.341812,86.090935 98.970428,86.122543 
	C97.906647,86.091766 96.842865,86.060989 95.383163,85.788727 
	C94.987251,85.547234 94.990547,85.084320 94.990547,85.084320 
	C97.920311,84.348351 100.850067,83.612381 103.900902,82.537491 
	C110.513466,82.930946 117.004967,83.663330 123.772339,84.661026 
z" data-index="47" style="opacity: 1;"></path>
<path fill="#B036E8" opacity="1.000000" stroke="none" d="
M135.996964,90.977234 
	C136.494156,90.743439 136.991333,90.509651 137.734283,90.151001 
	C140.923294,91.450439 143.866516,92.874725 146.994644,94.586807 
	C143.725296,94.359123 142.942978,96.770050 141.845657,99.534019 
	C139.585083,98.515320 137.776993,97.294136 135.978119,95.646210 
	C135.990555,93.805389 135.993759,92.391304 135.996964,90.977234 
z" data-index="48" style="opacity: 1;"></path>
<path fill="#9805C4" opacity="1.000000" stroke="none" d="
M233.356369,173.067719 
	C232.359360,172.674896 231.750061,172.235550 231.070984,171.505890 
	C235.130661,169.115646 239.260101,167.015732 243.729462,164.994873 
	C244.069382,165.073914 244.028137,165.044159 244.028137,165.044159 
	C242.041672,169.561646 238.651917,172.269958 233.356369,173.067719 
z" data-index="49" style="opacity: 1;"></path>
<path fill="#9805C4" opacity="1.000000" stroke="none" d="
M244.086456,165.092728 
	C244.326492,164.605835 244.549438,164.100128 244.772369,163.594437 
	C244.986725,163.725861 245.201080,163.857300 245.415421,163.988708 
	C245.098572,164.248505 244.781738,164.508301 244.246521,164.906128 
	C244.028137,165.044159 244.069382,165.073914 244.086456,165.092728 
z" data-index="50" style="opacity: 1;"></path>
<path fill="#0A0FE8" opacity="1.000000" stroke="none" d="
M53.727871,107.113029 
	C53.840717,107.557945 53.660011,108.129379 53.194386,108.838623 
	C53.084415,108.397476 53.259369,107.818512 53.727871,107.113029 
z" data-index="51" style="opacity: 1;"></path>
<path fill="#120FE5" opacity="1.000000" stroke="none" d="
M237.399902,95.581802 
	C237.981049,95.741417 238.420670,96.035057 238.948914,96.659943 
	C239.037521,96.991188 238.984482,97.185776 238.696701,97.099350 
	C237.938278,96.676971 237.467651,96.341034 236.997025,96.005081 
	C236.997025,96.005081 237.258377,95.715828 237.399902,95.581802 
z" data-index="52"></path>
<path fill="#0A0FE8" opacity="1.000000" stroke="none" d="
M52.646729,108.932571 
	C52.947132,109.085777 52.971256,109.262413 52.991325,109.706070 
	C52.785316,109.965561 52.583359,109.958023 52.079857,109.914413 
	C51.975689,109.570892 52.173073,109.263451 52.646729,108.932571 
z" data-index="53"></path>
<path fill="#3A0BE4" opacity="1.000000" stroke="none" d="
M239.073425,96.896957 
	C239.397430,96.977989 239.685547,97.153259 240.028992,97.622910 
	C240.084335,97.917305 239.933365,98.068077 239.746490,97.952332 
	C239.321472,97.660667 239.129761,97.443733 238.984482,97.185776 
	C238.984482,97.185776 239.037521,96.991188 239.073425,96.896957 
z" data-index="54"></path>
<path fill="#3A0BE4" opacity="1.000000" stroke="none" d="
M240.159607,97.841721 
	C240.562500,97.846565 240.840149,98.011246 241.197845,98.467453 
	C241.327866,98.674736 241.134689,98.860451 240.839691,98.822586 
	C240.295990,98.584167 240.092224,98.345284 239.933365,98.068077 
	C239.933365,98.068077 240.084335,97.917305 240.159607,97.841721 
z" data-index="55"></path>
<path fill="#0A0FE8" opacity="1.000000" stroke="none" d="
M54.830631,105.785309 
	C54.926620,106.000595 54.769646,106.398521 54.301460,106.910194 
	C54.186050,106.671944 54.381859,106.319954 54.830631,105.785309 
z" data-index="56"></path>
<path fill="#5309E7" opacity="1.000000" stroke="none" d="
M86.421234,202.801208 
	C86.088211,202.740524 86.046692,202.373795 86.334213,202.111877 
	C86.588669,199.926193 86.808037,197.956482 86.468048,196.088577 
	C85.832397,192.596283 84.872223,189.163055 84.467171,185.754166 
	C88.268837,186.289856 91.650398,186.776657 95.025154,187.661774 
	C95.371117,189.962769 95.660263,191.879959 96.089722,193.765167 
	C97.021439,197.855225 98.024879,201.928940 98.998993,206.009338 
	C96.630905,205.540375 94.262810,205.071426 91.504852,204.484497 
	C89.661423,203.864975 88.207840,203.363434 86.421234,202.801208 
z" data-index="57"></path>
<path fill="#6008E8" opacity="1.000000" stroke="none" d="
M99.352013,206.207092 
	C98.024879,201.928940 97.021439,197.855225 96.089722,193.765167 
	C95.660263,191.879959 95.371117,189.962769 95.452927,187.587952 
	C96.722603,186.902863 97.557709,186.689911 98.556152,186.597565 
	C98.719498,186.718170 98.963028,187.042816 99.200150,187.279114 
	C100.301826,187.702103 101.166397,187.888779 102.025291,188.472931 
	C103.072189,192.664520 104.124756,196.458618 105.414337,200.432495 
	C106.429939,200.797363 107.208511,200.982468 107.990311,201.588135 
	C107.998085,203.699219 108.002632,205.389709 108.007187,207.080231 
	C105.239799,206.855103 102.472420,206.629974 99.352013,206.207092 
z" data-index="58"></path>
<path fill="#7B07E7" opacity="1.000000" stroke="none" d="
M129.974640,201.878357 
	C129.121277,202.380615 128.267944,202.882889 127.192741,203.575974 
	C124.263100,204.587646 121.555305,205.408493 118.387039,205.829178 
	C117.603813,203.845642 117.281059,202.262283 117.271957,200.491211 
	C121.381851,199.265640 125.178101,198.227768 129.036987,197.530777 
	C129.391296,199.207230 129.682968,200.542786 129.974640,201.878357 
z" data-index="59"></path>
<path fill="#6B09E7" opacity="1.000000" stroke="none" d="
M116.958305,200.678925 
	C117.281059,202.262283 117.603813,203.845642 117.992821,205.837830 
	C114.999329,206.562958 111.939575,206.879303 108.443504,207.137939 
	C108.002632,205.389709 107.998085,203.699219 108.437172,201.530716 
	C111.573303,200.928116 114.265808,200.803513 116.958305,200.678925 
z" data-index="60"></path>

<path fill="#F103E3" opacity="1.000000" stroke="none" d="
M177.032349,118.201401 
	C179.015518,115.161621 181.154999,112.405212 183.760056,109.291290 
	C184.490509,108.607765 184.755402,108.281738 185.020309,107.955719 
	C185.020309,107.955719 185.017410,108.018242 185.247742,107.942184 
	C185.652908,107.563240 185.827728,107.260345 186.002548,106.957451 
	C186.002548,106.957451 186.009048,107.009361 186.246277,106.938354 
	C186.655365,106.565102 186.827209,106.262863 186.999039,105.960625 
	C186.999039,105.960625 187.007004,106.007439 187.252960,105.946175 
	C187.666489,105.577950 187.834076,105.270996 188.001663,104.964035 
	C188.001663,104.964035 188.008255,105.008553 188.262878,104.958817 
	C188.680267,104.596649 188.843033,104.284218 189.005814,103.971786 
	C189.005814,103.971786 189.008804,104.009132 189.320221,104.007530 
	C190.757675,103.330811 191.883728,102.655693 193.151337,102.297821 
	C194.203705,104.756126 195.114517,106.897179 195.913513,109.242676 
	C195.508850,109.808784 195.216034,110.170456 194.618591,110.668015 
	C193.491699,111.496994 192.669434,112.190079 191.600220,112.989914 
	C190.873337,113.608398 190.393387,114.120140 189.599060,114.776062 
	C186.704956,117.638138 184.125229,120.356026 181.545517,123.073929 
	C180.093231,121.544212 178.640945,120.014488 177.032349,118.201401 
z" data-index="62" style="opacity: 1;"></path>
<path fill="#7F07CB" opacity="1.000000" stroke="none" d="
M162.977768,118.069847 
	C164.304749,119.037842 165.631729,120.005844 167.233566,121.074799 
	C169.541367,123.269035 171.574310,125.362312 173.802353,128.143509 
	C174.660034,132.560013 175.322617,136.288605 175.695190,139.858475 
	C173.618118,138.459564 171.831039,137.219360 169.966660,135.655151 
	C167.927063,133.219818 165.964767,131.108505 164.001541,128.572647 
	C163.659653,124.788681 163.318710,121.429268 162.977768,118.069847 
z" data-index="63"></path>
<path fill="#8C07CE" opacity="1.000000" stroke="none" d="
M175.985214,140.017181 
	C175.322617,136.288605 174.660034,132.560013 173.998352,128.415955 
	C177.892410,131.469116 181.785568,134.937759 185.839157,139.126068 
	C186.327011,142.905823 186.654449,145.965912 186.981888,149.026001 
	C184.188400,147.118454 181.394928,145.210922 178.165588,142.878235 
	C177.148239,141.641113 176.566727,140.829147 175.985214,140.017181 
z" data-index="64" style="opacity: 1;"></path>
<path fill="#FB72ED" opacity="1.000000" stroke="none" d="
M203.258118,141.943573 
	C204.782272,142.094940 206.469772,142.573120 208.843216,143.359802 
	C216.684906,145.101547 223.936005,147.303711 230.440216,140.932114 
	C232.152100,137.662735 234.151169,134.689529 234.806778,131.444870 
	C235.353088,128.741211 234.323074,125.719063 233.991211,122.837982 
	C238.473984,127.996048 237.418854,133.498810 234.912109,139.453064 
	C234.821686,139.819855 234.848999,139.879776 234.587402,140.046738 
	C232.520767,142.102554 230.715729,143.991394 228.910675,145.880234 
	C225.668716,146.267746 222.403854,146.521423 219.189713,147.071503 
	C213.090576,148.115341 208.137955,145.637939 203.258118,141.943573 
z" data-index="65" style="opacity: 1;"></path>
<path fill="#F901DE" opacity="1.000000" stroke="none" d="
M228.796875,146.209320 
	C230.715729,143.991394 232.520767,142.102554 234.617126,140.060898 
	C233.715500,143.068939 232.522552,146.229782 231.165115,149.695312 
	C230.024506,151.097198 229.048386,152.194382 228.029526,153.609650 
	C225.908234,154.258606 223.829681,154.589493 221.364746,155.002045 
	C218.932159,155.077530 216.885956,155.071350 214.399857,155.098938 
	C211.116562,154.278244 208.273193,153.423782 205.201080,152.291916 
	C211.874252,153.326706 218.682877,153.785202 224.889557,149.565521 
	C226.223495,148.658630 227.422119,147.552673 228.796875,146.209320 
z" data-index="66" style="opacity: 1;"></path>
<path fill="#9A06D1" opacity="1.000000" stroke="none" d="
M187.119354,149.281189 
	C186.654449,145.965912 186.327011,142.905823 186.002304,139.416901 
	C189.146576,141.545212 192.288132,144.102371 195.693207,146.863220 
	C196.312180,149.761612 196.667633,152.456345 197.040314,155.558716 
	C194.572815,154.417191 192.088089,152.868027 189.307343,151.160736 
	C188.426483,150.513870 187.841644,150.025131 187.119354,149.281189 
z" data-index="67" style="opacity: 1;"></path>
<path fill="#563BED" opacity="1.000000" stroke="none" d="
M181.651688,123.411453 
	C184.125229,120.356026 186.704956,117.638138 189.621170,115.236107 
	C189.029129,120.330856 188.100586,125.109741 187.172058,129.888626 
	C185.367325,127.842079 183.562592,125.795532 181.651688,123.411453 
z" data-index="68" style="opacity: 1;"></path>
<path fill="#633AEC" opacity="1.000000" stroke="none" d="
M187.286652,130.166351 
	C188.100586,125.109741 189.029129,120.330856 189.935547,115.091919 
	C190.393387,114.120140 190.873337,113.608398 191.852142,113.261368 
	C192.251740,118.337639 192.152496,123.249214 192.053238,128.160782 
	C191.400192,129.296463 190.747147,130.432144 189.941071,131.862198 
	C188.992447,131.585739 188.196854,131.014908 187.286652,130.166351 
z" data-index="69" style="opacity: 1;"></path>
<path fill="#F901DE" opacity="1.000000" stroke="none" d="
M204.811462,151.782623 
	C204.421463,151.850525 203.843124,151.669876 203.056961,151.257843 
	C203.440460,151.195648 204.031799,151.364868 204.811462,151.782623 
z" data-index="70" style="opacity: 1;"></path>
<path fill="#FB72ED" opacity="1.000000" stroke="none" d="
M201.282166,141.083435 
	C201.697678,140.974411 202.314056,141.114578 203.120682,141.512146 
	C202.701630,141.623901 202.092346,141.478271 201.282166,141.083435 
z" data-index="71"></path>
<path fill="#860A87" opacity="1.000000" stroke="none" d="
M228.071640,119.999771 
	C225.816376,117.863922 223.561111,115.728065 221.566101,113.239174 
	C225.533432,113.347397 229.240479,113.808662 233.186127,114.491196 
	C235.277740,115.455276 237.130783,116.198105 239.193863,117.186020 
	C240.860062,118.334923 242.316223,119.238754 243.953857,120.420769 
	C245.766296,122.470322 247.397263,124.241692 249.028229,126.013062 
	C249.028229,126.013054 248.986862,126.008354 248.982391,126.322708 
	C249.299545,127.422600 249.621201,128.208130 249.942856,128.993652 
	C249.996124,129.993561 250.049393,130.993484 250.107269,132.366211 
	C245.930725,127.809044 242.015213,122.503014 234.042084,121.909897 
	C231.563843,121.276657 229.817749,120.638214 228.071640,119.999771 
z" data-index="72" style="opacity: 1;"></path>
<path fill="#EC01DC" opacity="1.000000" stroke="none" d="
M228.099060,120.386307 
	C229.817749,120.638214 231.563843,121.276657 233.657471,121.992615 
	C234.004974,122.070122 233.999847,122.454544 233.995529,122.646263 
	C234.323074,125.719063 235.353088,128.741211 234.806778,131.444870 
	C234.151169,134.689529 232.152100,137.662735 230.167450,140.718292 
	C229.059036,139.440414 228.517899,138.197754 227.976761,136.955078 
	C230.020889,131.579453 230.958832,126.193581 228.099060,120.386307 
z" data-index="73" style="opacity: 1;"></path>
<path fill="#9A06E6" opacity="1.000000" stroke="none" d="
M143.993073,179.989914 
	C142.079834,181.773956 140.166580,183.558014 137.746735,185.693756 
	C135.854019,186.765472 134.467926,187.485474 133.052704,187.829544 
	C132.659363,186.285950 132.295120,185.118256 132.161713,183.700226 
	C135.873260,181.205460 139.353973,178.961044 142.981232,177.035126 
	C143.416199,178.232376 143.704636,179.111145 143.993073,179.989914 
z" data-index="74"></path>
<path fill="#EA32E6" opacity="1.000000" stroke="none" d="
M133.081818,188.205460 
	C134.467926,187.485474 135.854019,186.765472 137.567902,185.975449 
	C138.268204,187.632721 138.640732,189.360031 138.725891,191.660309 
	C136.287842,193.459213 134.137177,194.685120 131.988251,195.542511 
	C131.276871,193.755417 130.563736,192.336823 130.023865,190.661179 
	C131.158676,189.671234 132.120255,188.938339 133.081818,188.205460 
z" data-index="75"></path>
<path fill="#AE0AE5" opacity="1.000000" stroke="none" d="
M144.247620,179.883484 
	C143.704636,179.111145 143.416199,178.232376 143.170471,176.774216 
	C145.195114,173.844986 147.177063,171.495163 149.380524,169.012146 
	C150.016006,168.576385 150.430008,168.273804 151.164185,168.011688 
	C152.012222,168.393478 152.540070,168.734833 153.067917,169.076172 
	C153.044830,169.488297 153.021759,169.900436 152.986786,170.620667 
	C150.741806,173.417542 148.508713,175.906342 146.110840,178.685730 
	C145.464767,179.243225 144.983475,179.510132 144.247620,179.883484 
z" data-index="76"></path>
<path fill="#8B0AE6" opacity="1.000000" stroke="none" d="
M131.986511,195.911041 
	C134.137177,194.685120 136.287842,193.459213 138.735382,192.058914 
	C139.032242,191.884537 138.975296,192.023300 138.975998,192.458282 
	C138.998322,193.625031 139.019958,194.356766 139.041565,195.088501 
	C137.136795,196.800552 135.232010,198.512604 133.141876,200.477264 
	C132.169479,201.062149 131.382416,201.394409 130.285004,201.802521 
	C129.682968,200.542786 129.391296,199.207230 129.353638,197.439636 
	C130.400604,196.642090 131.193558,196.276566 131.986511,195.911041 
z" data-index="77"></path>
<path fill="#9A06E6" opacity="1.000000" stroke="none" d="
M139.326218,194.930969 
	C139.019958,194.356766 138.998322,193.625031 138.958298,192.531158 
	C139.784576,191.889542 140.629257,191.610031 141.473938,191.330536 
	C141.633026,191.574509 141.792114,191.818481 141.951202,192.062454 
	C141.171082,192.966110 140.390976,193.869766 139.326218,194.930969 
z" data-index="78"></path>
<path fill="#9A06E6" opacity="1.000000" stroke="none" d="
M144.766846,188.977173 
	C145.005341,189.141190 144.999374,189.308609 144.975494,189.726440 
	C144.557083,189.808365 144.156555,189.639862 143.756042,189.471359 
	C144.011490,189.307755 144.266937,189.144150 144.766846,188.977173 
z" data-index="79"></path>
<path fill="#9A06E6" opacity="1.000000" stroke="none" d="
M146.787018,186.176819 
	C146.819366,186.536346 146.626343,187.092804 146.203186,187.840759 
	C146.169281,187.479416 146.365463,186.926575 146.787018,186.176819 
z" data-index="80"></path>
<path fill="#9A06E6" opacity="1.000000" stroke="none" d="
M147.070770,185.397736 
	C147.092819,185.189926 147.371643,185.489243 147.371643,185.489243 
	C147.371643,185.489243 147.236160,185.853882 147.110901,185.936310 
	C146.985657,186.018723 147.048737,185.605545 147.070770,185.397736 
z" data-index="81"></path>
<path fill="#9A06E6" opacity="1.000000" stroke="none" d="
M145.790680,188.074112 
	C145.823853,188.234741 145.620331,188.503128 145.194748,188.896149 
	C145.166443,188.741150 145.360229,188.461517 145.790680,188.074112 
z" data-index="82"></path>
<path fill="#9A06E6" opacity="1.000000" stroke="none" d="
M211.072220,93.195755 
	C214.073944,93.155090 217.075684,93.114433 220.536530,93.496742 
	C221.668015,96.932129 222.340363,99.944542 222.577423,102.977142 
	C220.120010,102.893135 218.097885,102.788956 216.052170,102.319214 
	C215.104416,98.787292 215.526459,94.758492 210.948883,93.768723 
	C210.990738,93.577888 211.072220,93.195755 211.072220,93.195755 
z" data-index="83"></path>
<path fill="#5309E7" opacity="1.000000" stroke="none" d="
M239.746490,97.952332 
	C240.092224,98.345284 240.295990,98.584167 240.742065,98.914345 
	C241.885086,102.538231 242.886169,106.018921 243.748062,109.533737 
	C244.074631,110.865501 244.080322,112.275940 243.695679,113.700951 
	C242.087753,112.919739 241.016434,112.088104 239.739655,111.103836 
	C239.337219,110.678352 239.140228,110.405495 238.954910,109.724380 
	C237.967499,104.926353 236.968399,100.536598 235.969299,96.146843 
	C236.140564,96.123093 236.311844,96.099335 236.740082,96.040329 
	C237.467651,96.341034 237.938278,96.676971 238.696701,97.099350 
	C239.129761,97.443733 239.321472,97.660667 239.746490,97.952332 
z" data-index="84"></path>
<path fill="#7B07E7" opacity="1.000000" stroke="none" d="
M225.958847,93.337685 
	C227.503220,93.685753 229.047592,94.033813 230.827484,95.001724 
	C232.061447,99.313965 233.059921,103.006355 233.831757,106.727295 
	C233.605133,106.755852 233.149002,106.742836 232.908936,106.524841 
	C231.113983,105.533516 229.559067,104.760185 228.000610,103.585526 
	C227.317657,99.902023 226.638245,96.619858 225.958847,93.337685 
z" data-index="85"></path>
<path fill="#6008E8" opacity="1.000000" stroke="none" d="
M234.058380,106.698738 
	C233.059921,103.006355 232.061447,99.313965 231.093979,95.215530 
	C232.508270,95.186256 233.891571,95.563042 235.622086,96.043335 
	C236.968399,100.536598 237.967499,104.926353 238.664810,109.567642 
	C236.928146,108.779037 235.493271,107.738884 234.058380,106.698738 
z" data-index="86"></path>
<path fill="#8B0AE6" opacity="1.000000" stroke="none" d="
M225.551361,93.241058 
	C226.638245,96.619858 227.317657,99.902023 227.633041,103.595352 
	C225.850250,103.656670 224.431488,103.306816 223.012726,102.956963 
	C222.340363,99.944542 221.668015,96.932129 220.986374,93.532074 
	C222.366013,93.144432 223.754944,93.144432 225.551361,93.241058 
z" data-index="87"></path>
<path fill="#8E73F2" opacity="1.000000" stroke="none" d="
M210.638885,93.126518 
	C211.072220,93.195755 210.990738,93.577888 210.633453,93.773056 
	C209.474197,94.176224 208.672226,94.384232 207.515594,94.694397 
	C205.764359,95.253975 204.367783,95.711395 202.658783,96.241333 
	C200.890869,97.169083 199.435364,98.024300 197.653717,98.955444 
	C195.888290,100.014435 194.449036,100.997505 193.009781,101.980576 
	C191.883728,102.655693 190.757675,103.330811 189.301727,104.004456 
	C194.207184,96.779999 201.418762,93.390732 210.638885,93.126518 
z" data-index="88"></path>
<path fill="#8E73F2" opacity="1.000000" stroke="none" d="
M184.717239,108.047699 
	C184.755402,108.281738 184.490509,108.607765 183.906921,109.017838 
	C183.863556,108.781158 184.138870,108.460426 184.717239,108.047699 
z" data-index="89"></path>
<path fill="#8E73F2" opacity="1.000000" stroke="none" d="
M185.721863,106.997208 
	C185.827728,107.260345 185.652908,107.563240 185.216537,107.939972 
	C185.117050,107.688202 185.279099,107.362587 185.721863,106.997208 
z" data-index="90"></path>
<path fill="#8E73F2" opacity="1.000000" stroke="none" d="
M186.709854,105.982048 
	C186.827209,106.262863 186.655365,106.565102 186.220367,106.934807 
	C186.111694,106.669342 186.266190,106.336403 186.709854,105.982048 
z" data-index="91"></path>
<path fill="#8E73F2" opacity="1.000000" stroke="none" d="
M188.707123,103.977402 
	C188.843033,104.284218 188.680267,104.596649 188.240723,104.954964 
	C188.112106,104.661568 188.260269,104.322296 188.707123,103.977402 
z" data-index="92"></path>
<path fill="#8E73F2" opacity="1.000000" stroke="none" d="
M187.705566,104.973724 
	C187.834076,105.270996 187.666489,105.577950 187.229675,105.941574 
	C187.110107,105.659958 187.259796,105.321678 187.705566,104.973724 
z" data-index="93"></path>
<path fill="#0A0EAA" opacity="1.000000" stroke="none" d="
M98.392815,186.476959 
	C97.557709,186.689911 96.722603,186.902863 95.459732,187.189636 
	C91.650398,186.776657 88.268837,186.289856 84.193558,185.545914 
	C80.674698,184.466843 77.849548,183.644928 74.787720,182.587631 
	C72.035843,181.234406 69.520645,180.116577 66.787277,178.746429 
	C58.724255,174.196777 53.115608,167.790695 49.056698,159.923203 
	C48.085175,155.542038 47.113655,151.160873 46.058586,146.389252 
	C46.330559,141.986359 46.686077,137.973938 47.040134,133.539307 
	C49.693111,127.337860 52.347549,121.558601 55.082710,115.430527 
	C56.029655,113.962883 56.895889,112.844048 58.228405,111.324684 
	C60.715111,109.053696 62.735527,107.183235 64.838394,105.732292 
	C65.624992,108.465744 66.329140,110.779678 66.980515,113.442474 
	C63.817032,121.446808 60.028210,128.910736 57.795635,136.814255 
	C55.761654,144.014755 56.354427,151.600021 60.032120,158.629211 
	C60.032120,156.833817 60.032120,155.038437 60.032120,153.243057 
	C61.483669,155.210419 61.956169,157.487137 63.036789,159.424698 
	C66.271194,165.223999 68.390648,172.111328 76.353355,174.123505 
	C82.945534,180.043045 90.171524,184.148621 98.392815,186.476959 
z" data-index="94" style="opacity: 1;"></path>
<path fill="#BD36E9" opacity="1.000000" stroke="none" d="
M239.945099,111.256470 
	C241.016434,112.088104 242.087753,112.919739 243.402542,113.905296 
	C244.478210,115.455070 245.310410,116.850929 245.925385,118.700058 
	C245.062927,119.483086 244.417648,119.812836 243.772385,120.142578 
	C242.316223,119.238754 240.860062,118.334923 239.210938,116.820015 
	C239.327026,114.558113 239.636063,112.907295 239.945099,111.256470 
z" data-index="95" style="opacity: 1;"></path>
<path fill="#A636E9" opacity="1.000000" stroke="none" d="
M243.953857,120.420776 
	C244.417648,119.812836 245.062927,119.483086 246.050888,119.024460 
	C247.308838,121.017982 248.224075,123.140366 249.083771,125.637909 
	C247.397263,124.241692 245.766296,122.470322 243.953857,120.420776 
z" data-index="96" style="opacity: 1;"></path>
<path fill="#A636E9" opacity="1.000000" stroke="none" d="
M249.996994,128.651764 
	C249.621201,128.208130 249.299545,127.422600 248.988861,126.302933 
	C249.350250,126.749153 249.700684,127.529526 249.996994,128.651764 
z" data-index="97"></path>
<path fill="#BD0BE5" opacity="1.000000" stroke="none" d="
M153.351349,168.894318 
	C152.540070,168.734833 152.012222,168.393478 151.210815,167.671417 
	C150.936340,166.834122 150.935410,166.377533 151.089890,165.617798 
	C154.856750,158.915863 158.468185,152.517075 162.284760,146.075821 
	C162.489899,146.033371 162.907288,145.996918 162.907288,145.996918 
	C163.560287,146.789230 164.213272,147.581558 165.009888,148.654343 
	C163.415161,152.994659 161.676804,157.054489 159.931061,161.492401 
	C157.827377,164.151154 155.731079,166.431808 153.351349,168.894318 
z" data-index="98"></path>
<path fill="#310CE8" opacity="1.000000" stroke="none" d="
M49.024723,160.197815 
	C53.115608,167.790695 58.724255,174.196777 66.535362,179.018219 
	C66.680763,181.584808 67.013786,183.629974 66.978142,185.668716 
	C66.958519,186.791138 66.319000,187.902710 65.958969,189.019180 
	C64.869247,188.092606 63.779522,187.166046 62.432091,186.078781 
	C60.981560,184.351547 59.788742,182.785004 58.321236,181.031204 
	C57.006290,179.561386 55.966042,178.278824 54.633034,176.886520 
	C53.755703,174.997391 53.171139,173.218033 52.318619,171.210175 
	C51.035645,167.910980 50.020622,164.840271 48.965569,161.395401 
	C48.947945,160.838272 48.970348,160.655334 49.024723,160.197815 
z" data-index="99" style="opacity: 1;"></path>
<path fill="#8E73F2" opacity="1.000000" stroke="none" d="
M64.755943,105.312775 
	C62.735527,107.183235 60.715111,109.053696 58.381561,111.057053 
	C59.305679,109.313240 60.453747,107.369171 61.805943,105.579308 
	C63.086765,103.883926 64.581673,102.350273 66.048271,100.409943 
	C66.540466,99.789619 66.966820,99.504845 67.769188,99.279648 
	C68.332596,99.159050 68.519989,98.978874 68.707382,98.798706 
	C68.707382,98.798706 68.782135,98.719299 69.073975,98.688408 
	C69.675346,98.523277 69.907402,98.306190 70.061981,98.006256 
	C72.658791,96.937363 75.255600,95.868477 78.464493,94.904602 
	C79.363487,95.276604 79.650406,95.543594 79.627625,95.974167 
	C74.463928,99.196083 69.609932,102.254425 64.755943,105.312775 
z" data-index="100" style="opacity: 1;"></path>
<path fill="#7972E2" opacity="1.000000" stroke="none" d="
M79.937332,95.810585 
	C79.650406,95.543594 79.363487,95.276604 78.816811,94.862183 
	C80.191902,93.958649 81.826752,93.202538 83.752090,92.276817 
	C87.763527,91.426781 91.484474,90.746368 95.932007,90.332443 
	C100.448463,91.012695 104.238350,91.426460 107.623947,91.885315 
	C106.138664,91.996468 105.057663,92.062531 103.525146,92.075340 
	C95.361519,93.284927 87.649429,94.547752 79.937332,95.810585 
z" data-index="101" style="opacity: 1;"></path>
<path fill="#633AEC" opacity="1.000000" stroke="none" d="
M69.820770,98.048019 
	C69.907402,98.306190 69.675346,98.523277 69.127663,98.697937 
	C69.013847,98.409798 69.243858,98.193611 69.820770,98.048019 
z" data-index="102"></path>
<path fill="#633AEC" opacity="1.000000" stroke="none" d="
M68.492218,98.834976 
	C68.519989,98.978874 68.332596,99.159050 68.024811,99.218834 
	C67.904427,99.098450 68.277046,98.871254 68.492218,98.834976 
z" data-index="103"></path>
<path fill="#6508B1" opacity="1.000000" stroke="none" d="
M164.002487,128.997192 
	C165.964767,131.108505 167.927063,133.219818 169.703827,135.929764 
	C169.680038,140.008179 169.841751,143.487976 170.003464,146.967758 
	C167.934387,145.393951 165.865326,143.820129 163.366608,141.833633 
	C162.620590,140.955688 162.304214,140.490448 161.991821,139.593475 
	C161.332886,134.770065 160.669983,130.378372 160.285126,126.133621 
	C161.709625,127.186096 162.856049,128.091644 164.002487,128.997192 
z" data-index="104"></path>
<path fill="#7008B6" opacity="1.000000" stroke="none" d="
M170.286591,147.147003 
	C169.841751,143.487976 169.680038,140.008179 169.781158,136.253784 
	C171.831039,137.219360 173.618118,138.459564 175.695190,139.858475 
	C176.566727,140.829147 177.148239,141.641113 177.870483,142.718323 
	C178.328812,146.091827 178.646393,149.200089 178.934357,152.750244 
	C176.126389,151.236862 173.348053,149.281570 170.286591,147.147003 
z" data-index="105"></path>
<path fill="#0B0D82" opacity="1.000000" stroke="none" d="
M161.987839,140.025192 
	C162.304214,140.490448 162.620590,140.955688 163.095337,141.657181 
	C163.142715,142.987503 163.031723,144.081589 162.914001,145.586304 
	C162.907288,145.996918 162.489899,146.033371 162.031677,145.795654 
	C159.345215,144.970444 157.116974,144.382935 154.940094,143.458389 
	C156.013641,141.402374 157.035828,139.683395 158.375488,138.010437 
	C159.791260,138.712723 160.889542,139.368958 161.987839,140.025192 
z" data-index="106"></path>
<path fill="#5309E7" opacity="1.000000" stroke="none" d="
M98.980362,86.467896 
	C100.341812,86.090935 101.713196,86.059319 103.900833,86.045135 
	C108.458260,87.380577 112.199417,88.698586 115.589645,90.173141 
	C109.814987,90.085411 104.391273,89.841148 98.967552,89.596878 
	C98.975136,88.668999 98.982712,87.741119 98.980362,86.467896 
z" data-index="107" style="opacity: 1;"></path>
<path fill="#8E73F2" opacity="1.000000" stroke="none" d="
M98.603973,89.682266 
	C104.391273,89.841148 109.814987,90.085411 115.628494,90.401703 
	C116.665222,90.328224 117.312164,90.182732 117.959106,90.037239 
	C119.204979,90.870773 120.450844,91.704300 121.540497,92.976669 
	C118.917740,93.311729 116.451187,93.207954 113.622910,92.987053 
	C111.516869,92.526695 109.772545,92.183464 108.028229,91.840225 
	C104.238350,91.426460 100.448463,91.012695 96.342140,90.350533 
	C96.763931,89.990646 97.502159,89.879150 98.603973,89.682266 
z" data-index="108" style="opacity: 1;"></path>
<path fill="#5309E7" opacity="1.000000" stroke="none" d="
M94.662491,85.106728 
	C94.990547,85.084320 94.987251,85.547234 94.984146,85.778671 
	C93.828064,86.416359 92.675087,86.822617 91.522110,87.228874 
	C91.411263,86.956955 91.300423,86.685036 91.189583,86.413109 
	C92.237869,85.985123 93.286156,85.557129 94.662491,85.106728 
z" data-index="109"></path>
<path fill="#7107C9" opacity="1.000000" stroke="none" d="
M164.001541,128.572647 
	C162.856049,128.091644 161.709625,127.186096 160.125641,125.844574 
	C157.439651,122.948677 155.191223,120.488739 153.178162,117.774834 
	C153.258606,115.061180 153.103683,112.601494 153.201950,110.129974 
	C153.624100,110.115395 153.793045,110.112663 153.961990,110.109932 
	C155.776260,111.635254 157.590546,113.160576 159.703857,114.809280 
	C160.873825,115.808746 161.744736,116.684845 162.796722,117.815392 
	C163.318710,121.429268 163.659653,124.788681 164.001541,128.572647 
z" data-index="110"></path>
<path fill="#AE0AE5" opacity="1.000000" stroke="none" d="
M149.047287,105.942154 
	C149.457764,105.966751 149.868240,105.991348 150.584610,106.025368 
	C150.950867,106.430420 151.011230,106.826042 151.048935,107.599915 
	C151.026260,107.978157 150.888809,108.142441 150.607407,108.052422 
	C149.768219,107.433319 149.210434,106.904228 148.751648,106.267189 
	C148.850632,106.159241 149.047287,105.942154 149.047287,105.942154 
z" data-index="111"></path>
<path fill="#AE0AE5" opacity="1.000000" stroke="none" d="
M151.095673,107.896606 
	C151.666885,108.056839 152.168686,108.298622 152.756958,108.849670 
	C152.843430,109.158936 152.667648,109.335297 152.422012,109.223419 
	C151.747192,108.788513 151.317993,108.465477 150.888809,108.142441 
	C150.888809,108.142441 151.026260,107.978157 151.095673,107.896606 
z" data-index="112"></path>
<path fill="#AE0AE5" opacity="1.000000" stroke="none" d="
M153.864990,109.877106 
	C153.793045,110.112663 153.624100,110.115395 153.141541,109.924438 
	C152.827942,109.730743 152.667648,109.335297 152.667648,109.335297 
	C152.667648,109.335297 152.843430,109.158936 152.931824,109.070976 
	C153.269470,109.203430 153.518738,109.423851 153.864990,109.877106 
z" data-index="113"></path>
<path fill="#470AE8" opacity="1.000000" stroke="none" d="
M75.024399,182.823029 
	C77.849548,183.644928 80.674698,184.466843 83.773453,185.497009 
	C84.872223,189.163055 85.832397,192.596283 86.468048,196.088577 
	C86.808037,197.956482 86.588669,199.926193 86.296593,201.931213 
	C84.877129,201.694214 83.782791,201.375977 82.347473,201.005371 
	C80.895691,200.381805 79.784897,199.810623 78.382706,199.103790 
	C78.091309,198.968155 77.981079,198.525497 78.173393,198.062805 
	C77.251938,192.674423 76.138168,187.748734 75.024399,182.823029 
z" data-index="114"></path>
<path fill="#3A0BE4" opacity="1.000000" stroke="none" d="
M74.787720,182.587631 
	C76.138168,187.748734 77.251938,192.674423 78.127777,197.839340 
	C76.488037,197.381592 75.086227,196.684631 73.362656,195.864899 
	C71.954720,194.845428 70.868538,193.948715 69.487793,192.972443 
	C68.341789,192.010086 67.490349,191.127304 66.368088,190.103577 
	C66.097267,189.962646 66.021454,189.491791 65.990204,189.255493 
	C66.319000,187.902710 66.958519,186.791138 66.978142,185.668716 
	C67.013786,183.629974 66.680763,181.584808 66.753525,179.270523 
	C69.520645,180.116577 72.035843,181.234406 74.787720,182.587631 
z" data-index="115"></path>
<path fill="#AE0AE5" opacity="1.000000" stroke="none" d="
M135.968887,96.072952 
	C137.776993,97.294136 139.585083,98.515320 141.694366,99.878265 
	C144.231186,101.804741 146.466858,103.589470 148.874908,105.658173 
	C149.047287,105.942154 148.850632,106.159241 148.428802,106.159164 
	C146.136902,105.374504 144.266861,104.589920 142.150482,103.559479 
	C138.921219,101.254570 135.938248,99.195518 133.173035,96.877853 
	C134.250153,96.437141 135.109512,96.255043 135.968887,96.072952 
z" data-index="116"></path>
<path fill="#4510C3" opacity="1.000000" stroke="none" d="
M132.955292,97.136475 
	C135.938248,99.195518 138.921219,101.254570 141.853851,103.783279 
	C141.865814,106.167389 141.928116,108.081833 141.734238,109.883743 
	C140.973175,109.531120 140.468292,109.291031 139.656357,108.890869 
	C136.230774,107.163910 133.112259,105.597023 129.682373,103.883209 
	C127.576942,102.837814 125.782890,101.939369 123.993134,100.599106 
	C124.003830,98.091438 124.010231,96.025581 124.016632,93.959717 
	C124.462517,93.974953 124.908401,93.990189 126.004730,94.099152 
	C128.755219,95.174080 130.855255,96.155273 132.955292,97.136475 
z" data-index="117" style="opacity: 1;"></path>
<path fill="#A636E9" opacity="1.000000" stroke="none" d="
M133.173035,96.877853 
	C130.855255,96.155273 128.755219,95.174080 126.336227,94.051575 
	C126.544136,87.216316 127.950066,86.704239 135.765472,90.710625 
	C135.993759,92.391304 135.990555,93.805389 135.978119,95.646210 
	C135.109512,96.255043 134.250153,96.437141 133.173035,96.877853 
z" data-index="118" style="opacity: 1;"></path>
<path fill="#350FC0" opacity="1.000000" stroke="none" d="
M123.852951,93.726044 
	C124.010231,96.025581 124.003830,98.091438 123.594521,100.588531 
	C122.127739,101.020325 121.063873,101.020874 119.692917,100.878738 
	C117.924393,100.160034 116.462959,99.584007 114.948044,98.635406 
	C114.591248,96.543274 114.287949,94.823723 113.984642,93.104179 
	C116.451187,93.207954 118.917740,93.311729 121.717773,93.256622 
	C122.597260,93.229279 123.143272,93.360817 123.852951,93.726044 
z" data-index="119"></path>
<path fill="#7E39EC" opacity="1.000000" stroke="none" d="
M117.973587,89.621841 
	C117.312164,90.182732 116.665222,90.328224 115.979431,90.245155 
	C112.199417,88.698586 108.458260,87.380577 104.311813,86.041199 
	C108.284935,85.689621 112.663338,85.359406 117.500000,85.052521 
	C117.968208,86.452713 117.978134,87.829575 117.973587,89.621841 
z" data-index="120" style="opacity: 1;"></path>
<path fill="#130E2B" opacity="1.000000" stroke="none" d="
M158.058014,137.964401 
	C157.035828,139.683395 156.013641,141.402374 154.717209,143.728775 
	C153.517365,146.100037 152.650406,147.897644 151.657074,149.622482 
	C142.186356,166.067810 132.250748,182.026337 111.915207,186.854721 
	C111.951614,186.893311 111.945587,186.787384 111.573853,186.766525 
	C110.473312,186.886887 109.744507,187.028107 108.596924,187.117508 
	C106.776085,187.108170 105.374023,187.150665 103.557556,187.141235 
	C101.749763,187.073807 100.356400,187.058304 98.963028,187.042816 
	C98.963028,187.042816 98.719498,186.718170 98.556152,186.597565 
	C90.171524,184.148621 82.945534,180.043045 76.288567,173.783325 
	C73.558594,168.866867 71.179634,164.461685 68.803406,159.652649 
	C68.254288,155.321655 67.118706,151.372925 67.263046,147.471542 
	C67.653030,136.930756 72.171242,127.966301 79.337494,119.945351 
	C86.212959,114.580925 93.608719,111.451508 102.480476,110.913132 
	C107.314957,111.202103 111.692657,111.462936 116.446518,111.798401 
	C120.851677,113.318275 124.880653,114.763519 129.112534,116.474693 
	C131.513397,117.896416 133.711349,119.052216 136.107559,120.469719 
	C138.882523,122.457581 141.459229,124.183739 144.234055,126.176392 
	C147.298126,128.604187 150.164108,130.765488 153.218262,133.191437 
	C154.956985,134.958847 156.507492,136.461624 158.058014,137.964401 
M78.423447,128.148132 
	C78.383942,128.540009 78.344429,128.931900 78.304924,129.323776 
	C78.665146,129.017303 79.025368,128.710831 79.800056,128.165970 
	C80.063141,127.971817 80.267159,127.728203 81.084877,127.239296 
	C86.744003,124.769012 92.403137,122.298729 98.960426,119.913467 
	C101.680397,119.769753 104.400368,119.626038 107.953674,119.667007 
	C109.876694,119.667007 111.799721,119.667007 113.782921,119.667007 
	C112.608498,114.261444 102.760864,112.763260 97.116348,116.913277 
	C90.004623,117.855911 84.059853,120.872810 79.309937,126.990173 
	C79.067139,127.214211 78.900108,127.484985 78.423447,128.148132 
M146.298279,145.183060 
	C143.772522,149.614532 141.246750,154.046005 138.720993,158.477478 
	C139.286392,158.828049 139.851776,159.178635 140.417175,159.529205 
	C143.249741,155.341507 146.082291,151.153809 149.478546,146.549667 
	C149.764084,143.043259 156.028839,140.552383 151.216202,135.048050 
	C149.486038,138.909134 148.171326,141.843048 146.298279,145.183060 
M116.660561,161.922668 
	C117.192169,162.314301 117.674355,162.815979 118.263100,163.080429 
	C123.717110,165.530304 129.354294,163.573029 131.210602,158.622482 
	C132.975266,153.916351 130.927414,150.764801 124.656181,148.543335 
	C123.873367,148.266052 122.969048,148.167953 122.323753,147.704529 
	C121.349312,147.004745 120.470322,146.116928 119.767151,145.151428 
	C119.656235,144.999146 120.668945,143.532776 121.187111,143.517441 
	C122.405777,143.481354 124.438393,143.606003 124.733528,144.281158 
	C126.286308,147.833344 128.911362,147.187027 131.648148,146.722672 
	C131.988892,141.710068 128.004669,138.004349 122.446716,137.989929 
	C117.382309,137.976791 114.144760,140.165848 113.563492,144.221085 
	C112.901009,148.842972 115.578003,151.317307 119.507774,152.823456 
	C120.746017,153.298019 122.219879,153.383835 123.244118,154.121887 
	C124.122246,154.754639 124.512306,156.064728 125.118225,157.075272 
	C123.873634,157.526642 122.182037,158.708908 121.477135,158.277802 
	C119.992554,157.369843 119.025162,155.616241 117.636154,153.960037 
	C116.368156,154.016388 114.742813,154.088623 111.535515,154.231171 
	C113.432938,157.202652 114.762535,159.284882 116.660561,161.922668 
M84.854645,155.454147 
	C85.154747,152.371643 84.526093,148.710098 85.993988,146.355667 
	C87.761917,143.519989 91.326874,143.950821 94.530334,145.542542 
	C95.981636,146.263626 97.965813,145.912231 99.820816,146.056107 
	C99.820816,143.964920 99.820816,142.372360 99.820816,140.503693 
	C96.117378,139.994171 92.559013,139.060974 89.016426,139.117477 
	C83.184578,139.210480 78.452858,144.493668 78.045799,150.627777 
	C77.643570,156.689087 81.711632,162.479645 87.271622,163.759979 
	C93.221291,165.130051 97.933006,162.586548 100.317276,156.515030 
	C98.799713,155.988602 97.291443,155.465408 95.888756,154.978836 
	C90.763618,159.628311 89.652374,159.737640 84.854645,155.454147 
z" data-index="121"></path>
<path fill="#6B09E7" opacity="1.000000" stroke="none" d="
M103.971970,187.193161 
	C105.374023,187.150665 106.776085,187.108170 108.823853,187.298721 
	C110.294907,187.283630 111.120247,187.035507 111.945587,186.787384 
	C111.945587,186.787384 111.951614,186.893311 112.200302,186.963608 
	C112.644005,187.089828 112.839020,187.145767 113.026299,187.591949 
	C113.671165,190.949158 114.323776,193.916122 114.614098,196.962646 
	C111.226982,198.112381 108.202156,199.182556 105.177322,200.252731 
	C104.124756,196.458618 103.072189,192.664520 102.296967,188.430847 
	C103.040192,187.725235 103.506081,187.459198 103.971970,187.193161 
z" data-index="122"></path>
<path fill="#F732E4" opacity="1.000000" stroke="none" d="
M105.414337,200.432495 
	C108.202156,199.182556 111.226982,198.112381 114.978180,196.951508 
	C118.793213,195.522537 121.881874,194.184265 125.290283,192.758148 
	C127.023560,192.086288 128.437088,191.502274 129.850616,190.918243 
	C130.563736,192.336823 131.276871,193.755417 131.988251,195.542526 
	C131.193558,196.276566 130.400604,196.642090 129.290985,197.098755 
	C125.178101,198.227768 121.381851,199.265640 117.271957,200.491211 
	C114.265808,200.803513 111.573303,200.928116 108.433945,201.110138 
	C107.208511,200.982468 106.429939,200.797363 105.414337,200.432495 
z" data-index="123"></path>
<path fill="#5309E7" opacity="1.000000" stroke="none" d="
M103.557556,187.141235 
	C103.506081,187.459198 103.040192,187.725235 102.302628,188.033386 
	C101.166397,187.888779 100.301826,187.702103 99.200150,187.279114 
	C100.356400,187.058304 101.749763,187.073807 103.557556,187.141235 
z" data-index="124"></path>
<path fill="#F732E4" opacity="1.000000" stroke="none" d="
M222.577423,102.977142 
	C224.431488,103.306816 225.850250,103.656670 227.636597,103.996681 
	C229.559067,104.760185 231.113983,105.533516 232.867249,106.997139 
	C233.026276,109.881599 232.986908,112.075768 232.947540,114.269936 
	C229.240479,113.808662 225.533432,113.347397 221.388412,112.956863 
	C218.266953,113.024254 215.583450,113.020912 212.450195,112.551788 
	C212.336990,109.084778 212.673553,106.083534 213.393982,103.040146 
	C214.543839,102.893593 215.309814,102.789185 216.075775,102.684776 
	C218.097885,102.788956 220.120010,102.893135 222.577423,102.977142 
z" data-index="125"></path>
<path fill="#D102D7" opacity="1.000000" stroke="none" d="
M227.698456,137.151154 
	C228.517899,138.197754 229.059036,139.440414 229.872925,140.896912 
	C223.936005,147.303711 216.684906,145.101547 209.209076,143.437820 
	C211.984726,143.139389 215.314133,143.766113 218.115814,142.823792 
	C221.453674,141.701141 224.338867,139.232651 227.698456,137.151154 
z" data-index="126" style="opacity: 1;"></path>
<path fill="#8B38EB" opacity="1.000000" stroke="none" d="
M194.923218,110.532120 
	C195.216034,110.170456 195.508850,109.808784 196.162781,109.236038 
	C196.523895,109.024956 197.022476,109.005020 197.272919,109.284187 
	C197.697540,113.382317 197.871719,117.201279 198.045883,121.020241 
	C196.929382,122.352982 195.812897,123.685722 194.383453,124.723984 
	C194.354736,119.797043 194.638977,115.164581 194.923218,110.532120 
z" data-index="127" style="opacity: 1;"></path>
<path fill="#A636E9" opacity="1.000000" stroke="none" d="
M204.237213,116.165421 
	C203.048508,117.098099 201.859772,118.030762 200.347885,118.603241 
	C199.661667,114.814201 199.298599,111.385353 199.075806,107.749908 
	C199.432663,107.284523 199.689423,107.074989 200.315826,106.811279 
	C201.755371,106.431290 202.865494,106.154732 203.966095,106.294754 
	C204.050140,109.862701 204.143677,113.014061 204.237213,116.165421 
z" data-index="128" style="opacity: 1;"></path>
<path fill="#C935E9" opacity="1.000000" stroke="none" d="
M209.010452,113.812561 
	C208.231522,114.211250 207.452591,114.609932 206.340225,114.585373 
	C206.002563,111.116402 205.998322,108.070671 206.304352,104.871872 
	C207.716187,104.455444 208.817795,104.192085 209.936249,104.356674 
	C209.638885,107.793922 209.324677,110.803246 209.010452,113.812561 
z" data-index="129"></path>
<path fill="#7039EA" opacity="1.000000" stroke="none" d="
M194.618591,110.668015 
	C194.638977,115.164581 194.354736,119.797043 194.106323,124.903137 
	C193.615723,126.200485 193.089294,127.024200 192.308060,128.004349 
	C192.152496,123.249214 192.251740,118.337639 192.099091,113.154617 
	C192.669434,112.190079 193.491699,111.496994 194.618591,110.668015 
z" data-index="130" style="opacity: 1;"></path>
<path fill="#9837EA" opacity="1.000000" stroke="none" d="
M198.935547,107.956512 
	C199.298599,111.385353 199.661667,114.814201 200.038116,118.708122 
	C199.557938,119.722267 199.064362,120.271332 198.308350,120.920319 
	C197.871719,117.201279 197.697540,113.382317 197.447556,109.059929 
	C197.893005,108.356506 198.414276,108.156509 198.935547,107.956512 
z" data-index="131" style="opacity: 1;"></path>
<path fill="#BD36E9" opacity="1.000000" stroke="none" d="
M205.994095,105.024940 
	C205.998322,108.070671 206.002563,111.116402 206.012512,114.620834 
	C205.604645,115.409065 205.191040,115.738594 204.507324,116.116768 
	C204.143677,113.014061 204.050140,109.862701 204.091461,106.102554 
	C204.437225,105.262627 204.685226,105.082634 205.226257,104.972321 
	C205.652786,105.002213 205.823441,105.013580 205.994095,105.024940 
z" data-index="132" style="opacity: 1;"></path>
<path fill="#EA32E6" opacity="1.000000" stroke="none" d="
M209.328003,113.827179 
	C209.324677,110.803246 209.638885,107.793922 209.963165,104.128372 
	C209.973206,103.472145 210.017426,103.013313 210.391693,103.013107 
	C211.514008,103.036041 212.262054,103.059166 213.010101,103.082298 
	C212.673553,106.083534 212.336990,109.084778 212.001144,112.517029 
	C211.216415,113.245964 210.430969,113.543877 209.328003,113.827179 
z" data-index="133"></path>
<path fill="#DF02DA" opacity="1.000000" stroke="none" d="
M199.075806,107.749908 
	C198.414276,108.156509 197.893005,108.356506 197.197113,108.780762 
	C197.022476,109.005020 196.523895,109.024956 196.274628,109.031593 
	C195.114517,106.897179 194.203705,104.756126 193.151337,102.297821 
	C194.449036,100.997505 195.888290,100.014435 197.707520,99.334297 
	C198.720459,102.063057 199.353424,104.488884 199.986389,106.914711 
	C199.689423,107.074989 199.432663,107.284523 199.075806,107.749908 
z" data-index="134"></path>
<path fill="#DA33E7" opacity="1.000000" stroke="none" d="
M233.186127,114.491196 
	C232.986908,112.075768 233.026276,109.881599 233.107315,107.215134 
	C233.149002,106.742836 233.605133,106.755852 233.831757,106.727295 
	C235.493271,107.738884 236.928146,108.779037 238.653137,109.975914 
	C239.140228,110.405495 239.337219,110.678352 239.739655,111.103836 
	C239.636063,112.907295 239.327026,114.558113 239.000916,116.574936 
	C237.130783,116.198105 235.277740,115.455276 233.186127,114.491196 
z" data-index="135" style="opacity: 1;"></path>
<path fill="#8E73F2" opacity="1.000000" stroke="none" d="
M149.158997,169.145325 
	C147.177063,171.495163 145.195114,173.844986 143.023926,176.455734 
	C139.353973,178.961044 135.873260,181.205460 131.809692,183.763214 
	C128.407227,184.705444 125.587601,185.334305 123.043739,185.723969 
	C133.288284,182.155930 141.159393,175.761765 148.545746,168.557495 
	C148.886185,168.884354 149.022598,169.014847 149.158997,169.145325 
z" data-index="136"></path>
<path fill="#8B0AE6" opacity="1.000000" stroke="none" d="
M122.767990,185.963165 
	C125.587601,185.334305 128.407227,184.705444 131.578857,184.013580 
	C132.295120,185.118256 132.659363,186.285950 133.052704,187.829544 
	C132.120255,188.938339 131.158676,189.671234 130.023865,190.661179 
	C128.437088,191.502274 127.023560,192.086288 125.242737,192.421570 
	C123.272369,190.491714 121.669281,188.810623 120.360718,187.064224 
	C121.359482,186.653656 122.063736,186.308411 122.767990,185.963165 
z" data-index="137"></path>
<path fill="#8E73F2" opacity="1.000000" stroke="none" d="
M150.934479,165.920944 
	C150.935410,166.377533 150.936340,166.834122 150.890625,167.630966 
	C150.430008,168.273804 150.016006,168.576385 149.380508,169.012146 
	C149.022598,169.014847 148.886185,168.884354 148.723816,168.313644 
	C149.443390,167.222595 150.188950,166.571777 150.934479,165.920944 
z" data-index="138"></path>
<path fill="#AE0AE5" opacity="1.000000" stroke="none" d="
M213.393982,103.040146 
	C212.262054,103.059166 211.514008,103.036041 210.135376,102.738937 
	C208.959946,99.840721 208.415100,97.216484 207.870270,94.592239 
	C208.672226,94.384232 209.474197,94.176224 210.591614,93.963882 
	C215.526459,94.758492 215.104416,98.787292 216.052170,102.319214 
	C215.309814,102.789185 214.543839,102.893593 213.393982,103.040146 
z" data-index="139"></path>
<path fill="#BD0BE5" opacity="1.000000" stroke="none" d="
M207.515594,94.694405 
	C208.415100,97.216484 208.959946,99.840721 209.761108,102.739136 
	C210.017426,103.013313 209.973206,103.472145 209.946289,103.700439 
	C208.817795,104.192085 207.716187,104.455444 206.304352,104.871872 
	C205.823441,105.013580 205.652786,105.002213 205.179169,104.604073 
	C204.241211,101.534477 203.606201,98.851646 202.971191,96.168808 
	C204.367783,95.711395 205.764359,95.253975 207.515594,94.694405 
z" data-index="140"></path>
<path fill="#D102D7" opacity="1.000000" stroke="none" d="
M202.658783,96.241333 
	C203.606201,98.851646 204.241211,101.534477 204.923294,104.585541 
	C204.685226,105.082634 204.437225,105.262627 204.100983,105.685966 
	C202.865494,106.154732 201.755371,106.431290 200.315826,106.811279 
	C199.353424,104.488884 198.720459,102.063057 198.033676,99.258377 
	C199.435364,98.024300 200.890869,97.169083 202.658783,96.241333 
z" data-index="141"></path>
<path fill="#0B0D82" opacity="1.000000" stroke="none" d="
M68.800667,160.056503 
	C71.179634,164.461685 73.558594,168.866867 76.002350,173.612213 
	C68.390648,172.111328 66.271194,165.223999 63.036789,159.424698 
	C61.956169,157.487137 61.483669,155.210419 60.032120,153.243057 
	C60.032120,155.038437 60.032120,156.833817 60.032120,158.629211 
	C56.354427,151.600021 55.761654,144.014755 57.795635,136.814255 
	C60.028210,128.910736 63.817032,121.446808 67.264999,113.266151 
	C70.064606,110.814941 72.526970,108.888924 75.130936,107.241837 
	C76.181786,108.347366 77.091049,109.173965 78.000168,110.250580 
	C78.000023,110.667267 78.000008,110.833939 77.657761,111.053207 
	C76.609856,111.518150 75.767830,111.797829 75.218567,112.362358 
	C63.378433,124.531395 60.973072,141.845169 66.554443,157.076691 
	C66.963974,158.194260 68.036415,159.068909 68.800667,160.056503 
z" data-index="142" style="opacity: 1;"></path>
<path fill="#0B0FB4" opacity="1.000000" stroke="none" d="
M74.989342,106.962906 
	C72.526970,108.888924 70.064606,110.814941 67.317764,112.917290 
	C66.329140,110.779678 65.624992,108.465744 64.838394,105.732292 
	C69.609932,102.254425 74.463928,99.196083 79.627625,95.974167 
	C87.649429,94.547752 95.361519,93.284927 103.591568,92.440605 
	C104.408607,94.574585 104.707687,96.290062 104.624046,98.007507 
	C102.828423,98.328682 101.415520,98.647873 99.553185,98.972946 
	C90.186653,98.985451 81.925087,100.971970 74.989342,106.962906 
z" data-index="143"></path>
<path fill="#0A0FE8" opacity="1.000000" stroke="none" d="
M151.089905,165.617798 
	C150.188950,166.571777 149.443390,167.222595 148.519775,168.117279 
	C141.159393,175.761765 133.288284,182.155930 123.043739,185.723969 
	C122.063736,186.308411 121.359482,186.653656 119.920731,187.007034 
	C117.135506,187.077332 115.084778,187.139511 113.034042,187.201691 
	C112.839020,187.145767 112.644005,187.089828 112.163902,186.925018 
	C132.250748,182.026337 142.186356,166.067810 151.657074,149.622482 
	C152.650406,147.897644 153.517365,146.100037 154.665863,144.065811 
	C157.116974,144.382935 159.345215,144.970444 161.826538,145.838104 
	C158.468185,152.517075 154.856750,158.915863 151.089905,165.617798 
z" data-index="144"></path>
<path fill="#220DBC" opacity="1.000000" stroke="none" d="
M105.006767,98.005524 
	C104.707687,96.290062 104.408607,94.574585 104.043091,92.493851 
	C105.057663,92.062531 106.138664,91.996468 107.623947,91.885315 
	C109.772545,92.183464 111.516869,92.526695 113.622910,92.987053 
	C114.287949,94.823723 114.591248,96.543274 114.520470,98.635239 
	C111.099846,98.673615 108.053307,98.339569 105.006767,98.005524 
z" data-index="145" style="opacity: 1;"></path>
<path fill="#5809AD" opacity="1.000000" stroke="none" d="
M158.375488,138.010437 
	C156.507492,136.461624 154.956985,134.958847 153.207840,132.787216 
	C152.007843,127.075455 151.006470,122.032547 150.292450,117.119186 
	C151.367447,117.508759 152.155121,117.768776 152.942780,118.028801 
	C155.191223,120.488739 157.439651,122.948677 159.847595,125.697647 
	C160.669983,130.378372 161.332886,134.770065 161.991821,139.593475 
	C160.889542,139.368958 159.791260,138.712723 158.375488,138.010437 
z" data-index="146"></path>
<path fill="#6009C6" opacity="1.000000" stroke="none" d="
M153.178162,117.774834 
	C152.155121,117.768776 151.367447,117.508759 150.128845,116.827393 
	C147.115417,114.269447 144.552917,112.132858 141.990417,109.996269 
	C141.928116,108.081833 141.865814,106.167389 142.100159,104.029144 
	C144.266861,104.589920 146.136902,105.374504 148.329803,106.267113 
	C149.210434,106.904228 149.768219,107.433319 150.607407,108.052422 
	C151.317993,108.465477 151.747192,108.788513 152.422012,109.223419 
	C152.667648,109.335297 152.827942,109.730743 152.888351,109.936279 
	C153.103683,112.601494 153.258606,115.061180 153.178162,117.774834 
z" data-index="147"></path>
<path fill="#4A0AA7" opacity="1.000000" stroke="none" d="
M141.734238,109.883743 
	C144.552917,112.132858 147.115417,114.269447 149.841522,116.697838 
	C151.006470,122.032547 152.007843,127.075455 153.019653,132.522583 
	C150.164108,130.765488 147.298126,128.604187 144.222748,125.790924 
	C142.663361,119.776291 141.313385,114.413612 139.963409,109.050941 
	C140.468292,109.291031 140.973175,109.531120 141.734238,109.883743 
z" data-index="148"></path>
<path fill="#3C0AA0" opacity="1.000000" stroke="none" d="
M139.656357,108.890869 
	C141.313385,114.413612 142.663361,119.776291 144.024643,125.524429 
	C141.459229,124.183739 138.882523,122.457581 136.132507,120.066528 
	C135.619095,118.164192 135.663406,116.244850 134.875961,115.800926 
	C130.062378,113.087234 130.680099,108.324570 129.993729,104.030144 
	C133.112259,105.597023 136.230774,107.163910 139.656357,108.890869 
z" data-index="149"></path>
<path fill="#300B9C" opacity="1.000000" stroke="none" d="
M129.682373,103.883209 
	C130.680099,108.324570 130.062378,113.087234 134.875961,115.800926 
	C135.663406,116.244850 135.619095,118.164192 135.934265,119.804810 
	C133.711349,119.052216 131.513397,117.896416 129.095520,116.090813 
	C128.025375,113.700279 127.595909,110.977615 126.247345,110.399712 
	C121.895294,108.534721 120.669708,105.076500 120.000000,101.021423 
	C121.063873,101.020874 122.127739,101.020325 123.590225,101.030342 
	C125.782890,101.939369 127.576942,102.837814 129.682373,103.883209 
z" data-index="150"></path>
<path fill="#220C99" opacity="1.000000" stroke="none" d="
M119.692917,100.878738 
	C120.669708,105.076500 121.895294,108.534721 126.247345,110.399712 
	C127.595909,110.977615 128.025375,113.700279 128.892639,115.824883 
	C124.880653,114.763519 120.851677,113.318275 116.426056,111.426224 
	C115.842636,107.397324 114.566673,104.951843 110.418983,104.839134 
	C106.952827,104.744934 103.496788,104.278610 100.019455,103.986748 
	C100.002647,103.996414 100.027008,103.965858 100.023964,103.550903 
	C100.014824,101.746315 100.008720,100.356682 100.002617,98.967056 
	C101.415520,98.647873 102.828423,98.328682 104.624046,98.007507 
	C108.053307,98.339569 111.099846,98.673615 114.573959,99.007828 
	C116.462959,99.584007 117.924393,100.160034 119.692917,100.878738 
z" data-index="151"></path>
<path fill="#F4F4F5" opacity="1.000000" stroke="none" d="
M116.376343,161.644897 
	C114.762535,159.284882 113.432938,157.202652 111.535515,154.231171 
	C114.742813,154.088623 116.368156,154.016388 117.636154,153.960037 
	C119.025162,155.616241 119.992554,157.369843 121.477135,158.277802 
	C122.182037,158.708908 123.873634,157.526642 125.118225,157.075256 
	C124.512306,156.064728 124.122246,154.754639 123.244118,154.121887 
	C122.219879,153.383835 120.746017,153.298019 119.507774,152.823456 
	C115.578003,151.317307 112.901009,148.842972 113.563492,144.221085 
	C114.144760,140.165848 117.382309,137.976791 122.446716,137.989929 
	C128.004669,138.004349 131.988892,141.710068 131.648148,146.722672 
	C128.911362,147.187027 126.286308,147.833344 124.733528,144.281158 
	C124.438393,143.606003 122.405777,143.481354 121.187111,143.517441 
	C120.668945,143.532776 119.656235,144.999146 119.767151,145.151428 
	C120.470322,146.116928 121.349312,147.004745 122.323753,147.704529 
	C122.969048,148.167953 123.873367,148.266052 124.656181,148.543335 
	C130.927414,150.764801 132.975266,153.916351 131.210602,158.622482 
	C129.354294,163.573029 123.717110,165.530304 118.263100,163.080429 
	C117.674355,162.815979 117.192169,162.314301 116.376343,161.644897 
z" data-index="152"></path>
<path fill="#F2F2F3" opacity="1.000000" stroke="none" d="
M85.078384,155.807617 
	C89.652374,159.737640 90.763618,159.628311 95.888756,154.978836 
	C97.291443,155.465408 98.799713,155.988602 100.317276,156.515030 
	C97.933006,162.586548 93.221291,165.130051 87.271622,163.759979 
	C81.711632,162.479645 77.643570,156.689087 78.045799,150.627777 
	C78.452858,144.493668 83.184578,139.210480 89.016426,139.117477 
	C92.559013,139.060974 96.117378,139.994171 99.820816,140.503693 
	C99.820816,142.372360 99.820816,143.964920 99.820816,146.056107 
	C97.965813,145.912231 95.981636,146.263626 94.530334,145.542542 
	C91.326874,143.950821 87.761917,143.519989 85.993988,146.355667 
	C84.526093,148.710098 85.154747,152.371643 85.078384,155.807617 
z" data-index="153"></path>
<path fill="#0C0D69" opacity="1.000000" stroke="none" d="
M68.803406,159.652649 
	C68.036415,159.068909 66.963974,158.194260 66.554443,157.076691 
	C60.973072,141.845169 63.378433,124.531395 75.218567,112.362358 
	C75.767830,111.797829 76.609856,111.518150 77.657761,111.480896 
	C78.344162,114.605705 78.688339,117.355423 79.032509,120.105141 
	C72.171242,127.966301 67.653030,136.930756 67.263046,147.471542 
	C67.118706,151.372925 68.254288,155.321655 68.803406,159.652649 
z" data-index="154"></path>
<path fill="#0C0D76" opacity="1.000000" stroke="none" d="
M79.337494,119.945351 
	C78.688339,117.355423 78.344162,114.605705 78.000000,111.428299 
	C78.000008,110.833939 78.000023,110.667267 78.316940,110.101074 
	C85.241753,105.838417 92.173882,103.184547 100.027008,103.965858 
	C100.027008,103.965858 100.002647,103.996414 100.057190,104.349564 
	C100.749046,106.763481 101.386360,108.824234 102.023682,110.884987 
	C93.608719,111.451508 86.212959,114.580925 79.337494,119.945351 
z" data-index="155"></path>
<path fill="#170C84" opacity="1.000000" stroke="none" d="
M102.480469,110.913132 
	C101.386360,108.824234 100.749046,106.763481 100.073997,104.339905 
	C103.496788,104.278610 106.952827,104.744934 110.418983,104.839134 
	C114.566673,104.951843 115.842636,107.397324 116.049881,111.351593 
	C111.692657,111.462936 107.314957,111.202103 102.480469,110.913132 
z" data-index="156"></path>
<path fill="#300B9C" opacity="1.000000" stroke="none" d="
M79.701958,126.710381 
	C84.059853,120.872810 90.004623,117.855911 97.719810,116.972977 
	C98.518372,117.074921 98.713470,117.117149 98.894073,117.441040 
	C98.607155,118.424629 98.334709,119.126541 98.062271,119.828445 
	C92.403137,122.298729 86.744003,124.769012 80.573578,127.153458 
	C79.942184,126.948540 79.822075,126.829460 79.701958,126.710381 
z" data-index="157"></path>
<path fill="#8C07CE" opacity="1.000000" stroke="none" d="
M98.908562,117.159370 
	C98.713470,117.117149 98.518372,117.074921 98.026917,116.987907 
	C102.760864,112.763260 112.608498,114.261444 113.782921,119.667007 
	C111.799721,119.667007 109.876694,119.667007 107.423782,119.241730 
	C104.232109,118.264084 101.570335,117.711723 98.908562,117.159370 
z" data-index="158"></path>
<path fill="#B504D2" opacity="1.000000" stroke="none" d="
M148.914856,146.966110 
	C146.082291,151.153809 143.249741,155.341507 140.417175,159.529205 
	C139.851776,159.178635 139.286392,158.828049 138.720993,158.477478 
	C141.246750,154.046005 143.772522,149.614532 146.721008,145.251587 
	C147.734116,145.868790 148.324493,146.417450 148.914856,146.966110 
z" data-index="159"></path>
<path fill="#DF02DA" opacity="1.000000" stroke="none" d="
M149.196701,146.757889 
	C148.324493,146.417450 147.734116,145.868790 147.000183,145.048553 
	C148.171326,141.843048 149.486038,138.909134 151.216202,135.048050 
	C156.028839,140.552383 149.764084,143.043259 149.196701,146.757889 
z" data-index="160"></path>
<path fill="#5809AD" opacity="1.000000" stroke="none" d="
M98.894073,117.441040 
	C101.570335,117.711723 104.232109,118.264084 107.007111,119.149384 
	C104.400368,119.626038 101.680397,119.769753 98.511353,119.870956 
	C98.334709,119.126541 98.607155,118.424629 98.894073,117.441040 
z" data-index="161"></path>
<path fill="#0A0FE8" opacity="1.000000" stroke="none" d="
M111.573853,186.766525 
	C111.120247,187.035507 110.294907,187.283630 109.242645,187.350540 
	C109.744507,187.028107 110.473312,186.886887 111.573853,186.766525 
z" data-index="162"></path>
<path fill="#300B9C" opacity="1.000000" stroke="none" d="
M79.385590,128.404358 
	C79.025368,128.710831 78.665146,129.017303 78.304924,129.323776 
	C78.344429,128.931900 78.383942,128.540009 78.760414,128.126251 
	C79.097382,128.104355 79.385590,128.404358 79.385590,128.404358 
z" data-index="163"></path>
<path fill="#300B9C" opacity="1.000000" stroke="none" d="
M80.237198,127.251373 
	C80.267159,127.728203 80.063141,127.971817 79.592819,128.285156 
	C79.385590,128.404358 79.097382,128.104355 78.953110,127.953430 
	C78.900108,127.484985 79.067139,127.214211 79.505951,126.850281 
	C79.822075,126.829460 79.942184,126.948540 80.237198,127.251373 
z" data-index="164"></path>
<path fill="#7B07E7" opacity="1.000000" stroke="none" d="
M113.026299,187.591949 
	C115.084778,187.139511 117.135506,187.077332 119.626221,187.072357 
	C121.669281,188.810623 123.272369,190.491714 124.922997,192.509399 
	C121.881874,194.184265 118.793213,195.522537 115.340469,196.871948 
	C114.323776,193.916122 113.671165,190.949158 113.026299,187.591949 
z" data-index="165"></path>
<path fill="#0B0D8C" opacity="1.000000" stroke="none" d="
M100.023964,103.550903 
	C92.173882,103.184547 85.241753,105.838417 78.317078,109.851059 
	C77.091049,109.173965 76.181786,108.347366 75.130936,107.241837 
	C81.925087,100.971970 90.186653,98.985451 99.553185,98.972939 
	C100.008720,100.356682 100.014824,101.746315 100.023964,103.550903 
z" data-index="166"></path>
</svg>